<svg xmlns="http://www.w3.org/2000/svg" enable-background="new 0 0 512 512" viewBox="0 0 512 512" id="article"><path fill="#000000" d="M293.96,16H83.04C50.15,16,23.5,42.65,23.5,75.54v360.92c0,32.89,26.65,59.54,59.54,59.54h210.92
				c32.89,0,59.54-26.65,59.54-59.54c0-15.416,0-345.533,0-360.92C353.5,42.65,326.85,16,293.96,16z" class="colore0e6e9 svgShape"></path><path fill="#d4c2c5" d="M293.96,511H83.04C41.938,511,8.5,477.562,8.5,436.46V75.54C8.5,34.438,41.938,1,83.04,1h210.92
				c41.102,0,74.54,33.438,74.54,74.54V263.5c0,8.284-6.716,15-15,15s-15-6.716-15-15V75.54c0-24.56-19.98-44.54-44.54-44.54H83.04
				C58.48,31,38.5,50.98,38.5,75.54v360.92c0,24.56,19.98,44.54,44.54,44.54h210.92c24.56,0,44.54-19.98,44.54-44.54V326.467
				c0-8.284,6.716-15,15-15s15,6.716,15,15V436.46C368.5,477.562,335.062,511,293.96,511z" class="colorc2ced4 svgShape"></path><path fill="#d4c2c5" d="M278.5 121h-180c-8.284 0-15-6.716-15-15s6.716-15 15-15h180c8.284 0 15 6.716 15 15S286.784 121 278.5 121zM278.5 181h-180c-8.284 0-15-6.716-15-15s6.716-15 15-15h180c8.284 0 15 6.716 15 15S286.784 181 278.5 181zM278.5 241h-180c-8.284 0-15-6.716-15-15s6.716-15 15-15h180c8.284 0 15 6.716 15 15S286.784 241 278.5 241zM188.5 301h-90c-8.284 0-15-6.716-15-15s6.716-15 15-15h90c8.284 0 15 6.716 15 15S196.784 301 188.5 301z" class="colorc2ced4 svgShape"></path><path fill="#232d3f" d="M458.5,256.64l-42.43,42.43L373.9,273.4l-21.47-37.97c9.815-9.815,31.091-31.091,42.43-42.43
				l41.173,24.4L458.5,256.64z" class="color0885f6 svgShape"></path><path fill="#689cf9" d="M416.07,299.07c-6.988,6.988-120.289,120.289-127.28,127.28l-74.24,10.6l10.6-74.24l127.28-127.28
				L416.07,299.07z" class="color68aef9 svgShape"></path><path fill="#e40929" d="M490.32,161.18c17.551,17.551,17.596,46.044,0,63.64l-31.82,31.82L394.86,193l31.82-31.82
				C444.25,143.61,472.75,143.61,490.32,161.18z" class="colorfd3f2e svgShape"></path></svg>