<svg xmlns="http://www.w3.org/2000/svg" viewBox="0 0 64 64" id="BrightIdea"><path fill="#facc15" d="M46.02 12.71c.41 4.38-1.18 8.39-3.96 11.23-1.25 1.27-1.99 2.96-2.23 4.73l-.55 4.09c-.13.97-.95 1.69-1.93 1.69h-10.7c-.97 0-1.8-.72-1.93-1.69l-.53-3.97c-.24-1.83-1.01-3.57-2.29-4.9-2.46-2.54-3.98-6-3.98-9.81 0-8.3 7.19-14.93 15.68-13.99 6.55.72 11.8 6.07 12.42 12.62z" class="colorf9c76e svgShape"></path><path fill="#828282" d="M26.74 34.44h10.52v5.87H26.74z" class="color828282 svgShape"></path><path fill="#636363" d="M34.57 42.16c0 .82-1.15 1.47-2.57 1.47s-2.57-.65-2.57-1.47h5.14z" class="color575d6f svgShape"></path><path fill="#727272" d="M37.31 35.99H26.69a.781.781 0 0 1 0-1.56H37.3c.43 0 .78.35.78.78 0 .43-.34.78-.77.78zm0 2.16H26.69a.781.781 0 0 1 0-1.56H37.3c.43 0 .78.35.78.78 0 .43-.34.78-.77.78zM35.74 42.16h-7.45l-1.55-1.86h10.52z" class="color727272 svgShape"></path><path fill="#828282" d="M35.25 34.44h-.9v-6.51c0-.15-.22-.33-.58-.46-.45-.17-1.1-.27-1.77-.27-1.46 0-2.35.42-2.35.73v6.51h-.9v-6.51c0-1.2 1.75-1.62 3.25-1.62s3.25.43 3.25 1.62v6.51zm.71-18.51c-.66 0-1.32-.19-1.98-.56-1.32.75-2.64.75-3.96 0-1.4.8-2.81.75-4.2-.15a.451.451 0 0 1-.14-.62c.13-.21.41-.27.62-.14 1.17.75 2.31.75 3.48 0a.46.46 0 0 1 .48 0c1.17.75 2.31.75 3.48 0a.46.46 0 0 1 .48 0c1.17.75 2.31.75 3.48 0 .21-.13.49-.07.62.14.13.21.07.49-.14.62-.74.47-1.48.71-2.22.71zm-2.27 7.04h-3.38c-.44 0-.79-.36-.79-.79 0-.44.36-.79.79-.79h3.38c.44 0 .79.36.79.79 0 .44-.35.79-.79.79z" class="color828282 svgShape"></path><path fill="#828282" d="M30.52 22.97h.8v3.88h-.8zM32.68 22.97h.8v3.88h-.8zM32.88 21.95h-1.76c-.11 0-.2-.08-.22-.19l-1.1-6.89c-.02-.12.06-.24.19-.26.12-.02.24.06.26.19l1.07 6.7h1.37l1.07-6.7a.228.228 0 1 1 .45.07l-1.1 6.89c-.03.12-.12.19-.23.19zM34.22 27.47l3.5-12.69c.03-.12.16-.19.28-.16.12.03.19.16.16.28l-3.54 12.86-.4-.29zm-4.83.29L25.84 14.9c-.03-.12.04-.24.16-.28.12-.03.24.04.28.16l3.5 12.69-.39.29z" class="color828282 svgShape"></path><path fill="#f2f2f0" d="M38.09 39.58C38.07 46.5 34.8 55.25 32 64c-2.8-8.75-6.07-17.5-6.09-24.42l4.07 6.17L32 42.16l2.02 3.59 4.07-6.17z" class="colorf2f2f0 svgShape"></path><path fill="#efd46a" d="M35.39 64h-6.83l2.33-17.85h2.17zM33.09 46.15h-2.17l-2.45-3.99h7.07z" class="coloref736a svgShape"></path><path fill="#e0e0de" d="m32 42.16-2.01 3.59-4.07-6.17.81-1.29zM38.09 39.58l-4.07 6.17L32 42.16l5.28-3.87z" class="colore0e0de svgShape"></path><path fill="#161616" d="m24.41 51.02.97-3.88-1.98-1.04-.34-4.37 2.86-2.16C25.94 46.5 29.21 55.25 32 64c-3.14-3.82-5.74-8.09-7.59-12.98z" class="color304d63 svgShape"></path><path fill="#535353" d="M32 64H13.86c-1.4 0-2.47-1.26-2.25-2.64l1.93-11.88a5.63 5.63 0 0 1 2.56-3.87c1.93-1.22 3.87-2.58 6.96-3.86l.34 4.37 1.98 1.04-.97 3.88C26.26 55.91 28.85 60.18 32 64z" class="color3a556d svgShape"></path><path fill="#161616" d="m40.61 46.11-1.98 1.04.97 3.88C37.75 55.91 35.16 60.18 32 64c2.8-8.75 6.07-17.5 6.09-24.42l2.86 2.16-.34 4.37z" class="color304d63 svgShape"></path><path fill="#535353" d="M32 64c3.15-3.82 5.75-8.09 7.6-12.98l-.97-3.88 1.98-1.04.34-4.37c3.08 1.28 5.03 2.65 6.96 3.86a5.63 5.63 0 0 1 2.56 3.87l1.92 11.88c.22 1.38-.84 2.64-2.25 2.64H32z" class="color3a556d svgShape"></path></svg>