<svg width="835" height="267" viewBox="0 0 835 267" fill="none" xmlns="http://www.w3.org/2000/svg">
<rect x="0.5" y="0.5" width="51" height="266" rx="17.5" fill="#001F3F" stroke="black"/>
<rect x="200" y="41" width="52" height="192" rx="18" fill="#001F3F"/>
<path d="M335.752 164.008C335.752 166.568 335.581 168.872 335.24 170.92H283.4C283.827 176.04 285.619 180.051 288.776 182.952C291.933 185.853 295.816 187.304 300.424 187.304C307.08 187.304 311.816 184.445 314.632 178.728H333.96C331.912 185.555 327.987 191.187 322.184 195.624C316.381 199.976 309.256 202.152 300.808 202.152C293.981 202.152 287.837 200.659 282.376 197.672C277 194.6 272.776 190.291 269.704 184.744C266.717 179.197 265.224 172.797 265.224 165.544C265.224 158.205 266.717 151.763 269.704 146.216C272.691 140.669 276.872 136.403 282.248 133.416C287.624 130.429 293.811 128.936 300.808 128.936C307.549 128.936 313.565 130.387 318.856 133.288C324.232 136.189 328.371 140.328 331.272 145.704C334.259 150.995 335.752 157.096 335.752 164.008ZM317.192 158.888C317.107 154.28 315.443 150.611 312.2 147.88C308.957 145.064 304.989 143.656 300.296 143.656C295.859 143.656 292.104 145.021 289.032 147.752C286.045 150.397 284.211 154.109 283.528 158.888H317.192ZM366.752 141.096C369.056 137.341 372.043 134.397 375.712 132.264C379.467 130.131 383.733 129.064 388.512 129.064V147.88H383.776C378.144 147.88 373.877 149.203 370.976 151.848C368.16 154.493 366.752 159.101 366.752 165.672V201H348.832V130.088H366.752V141.096ZM395.974 165.288C395.974 158.12 397.382 151.763 400.198 146.216C403.099 140.669 407.025 136.403 411.974 133.416C416.923 130.429 422.427 128.936 428.486 128.936C433.094 128.936 437.489 129.96 441.67 132.008C445.851 133.971 449.179 136.616 451.654 139.944V106.28H469.83V201H451.654V190.504C449.435 194.003 446.321 196.819 442.31 198.952C438.299 201.085 433.649 202.152 428.358 202.152C422.385 202.152 416.923 200.616 411.974 197.544C407.025 194.472 403.099 190.163 400.198 184.616C397.382 178.984 395.974 172.541 395.974 165.288ZM451.782 165.544C451.782 161.192 450.929 157.48 449.222 154.408C447.515 151.251 445.211 148.861 442.31 147.24C439.409 145.533 436.294 144.68 432.966 144.68C429.638 144.68 426.566 145.491 423.75 147.112C420.934 148.733 418.63 151.123 416.838 154.28C415.131 157.352 414.278 161.021 414.278 165.288C414.278 169.555 415.131 173.309 416.838 176.552C418.63 179.709 420.934 182.141 423.75 183.848C426.651 185.555 429.723 186.408 432.966 186.408C436.294 186.408 439.409 185.597 442.31 183.976C445.211 182.269 447.515 179.88 449.222 176.808C450.929 173.651 451.782 169.896 451.782 165.544ZM495.268 201.896C492.025 201.896 489.337 200.915 487.204 198.952C485.156 196.904 484.132 194.387 484.132 191.4C484.132 188.413 485.156 185.939 487.204 183.976C489.337 181.928 492.025 180.904 495.268 180.904C498.425 180.904 501.028 181.928 503.076 183.976C505.124 185.939 506.148 188.413 506.148 191.4C506.148 194.387 505.124 196.904 503.076 198.952C501.028 200.915 498.425 201.896 495.268 201.896ZM559.878 129.064C568.326 129.064 575.153 131.752 580.358 137.128C585.563 142.419 588.166 149.843 588.166 159.4V201H570.246V161.832C570.246 156.2 568.838 151.891 566.022 148.904C563.206 145.832 559.366 144.296 554.502 144.296C549.553 144.296 545.627 145.832 542.726 148.904C539.91 151.891 538.502 156.2 538.502 161.832V201H520.582V130.088H538.502V138.92C540.891 135.848 543.921 133.459 547.59 131.752C551.345 129.96 555.441 129.064 559.878 129.064ZM671.127 164.008C671.127 166.568 670.956 168.872 670.615 170.92H618.775C619.202 176.04 620.994 180.051 624.151 182.952C627.308 185.853 631.191 187.304 635.799 187.304C642.455 187.304 647.191 184.445 650.007 178.728H669.335C667.287 185.555 663.362 191.187 657.559 195.624C651.756 199.976 644.631 202.152 636.183 202.152C629.356 202.152 623.212 200.659 617.751 197.672C612.375 194.6 608.151 190.291 605.079 184.744C602.092 179.197 600.599 172.797 600.599 165.544C600.599 158.205 602.092 151.763 605.079 146.216C608.066 140.669 612.247 136.403 617.623 133.416C622.999 130.429 629.186 128.936 636.183 128.936C642.924 128.936 648.94 130.387 654.231 133.288C659.607 136.189 663.746 140.328 666.647 145.704C669.634 150.995 671.127 157.096 671.127 164.008ZM652.567 158.888C652.482 154.28 650.818 150.611 647.575 147.88C644.332 145.064 640.364 143.656 635.671 143.656C631.234 143.656 627.479 145.021 624.407 147.752C621.42 150.397 619.586 154.109 618.903 158.888H652.567ZM705.071 144.808V179.112C705.071 181.501 705.626 183.251 706.735 184.36C707.93 185.384 709.892 185.896 712.623 185.896H720.943V201H709.679C694.575 201 687.023 193.661 687.023 178.984V144.808H678.575V130.088H687.023V112.552H705.071V130.088H720.943V144.808H705.071Z" fill="#FFA500"/>
<g clip-path="url(#clip0_603_104)">
<path d="M76.7115 25.3583C75.3435 25.5459 74.3866 26.8068 74.5742 28.1747L76.6115 43.0357C76.799 44.4036 78.0599 45.3605 79.4278 45.173L92.5551 43.3734C92.9654 43.3171 93.2525 42.9388 93.1963 42.5285C93.14 42.1181 92.7617 41.831 92.3513 41.8873L79.2241 43.6869C78.677 43.7619 78.1726 43.3792 78.0976 42.832L92.2155 40.8966C92.6259 40.8403 92.913 40.462 92.8567 40.0516L90.9213 25.9337C90.7337 24.5658 89.4728 23.6089 88.1049 23.7964L76.7115 25.3583ZM78.605 28.1268L86.5309 27.0402C87.0781 26.9652 87.5824 27.348 87.6574 27.8952L87.7933 28.8859C87.8683 29.4331 87.4855 29.9374 86.9383 30.0124L79.0125 31.099C78.4653 31.174 77.9609 30.7912 77.8859 30.2441L77.7501 29.2534C77.6751 28.7062 78.0579 28.2018 78.605 28.1268Z" fill="#212121"/>
</g>
<path d="M53.3434 28.2248L71.8344 27.6871C72.2484 27.6751 72.5938 28.001 72.6059 28.415C72.6169 28.7945 72.344 29.1164 71.9795 29.1767L71.878 29.1865L53.387 29.7242C52.973 29.7362 52.6276 29.4103 52.6156 28.9963C52.6045 28.6167 52.8774 28.2949 53.2419 28.2346L53.3434 28.2248ZM68.502 16.2797C69.4681 16.2516 70.2741 17.012 70.3022 17.9781L70.5202 25.4752C70.5482 26.4413 69.7878 27.2472 68.8218 27.2753L56.327 27.6386C55.3609 27.6667 54.555 26.9063 54.5269 25.9402L54.3089 18.4431C54.2808 17.477 55.0412 16.6711 56.0073 16.643L68.502 16.2797Z" fill="#212121"/>
<path d="M94.0571 53.4308C95.0334 52.4544 96.6163 52.4544 97.5926 53.4308C98.5689 54.4071 98.5689 55.99 97.5926 56.9663C96.6163 57.9426 95.0334 57.9426 94.0571 56.9663C93.0807 55.99 93.0807 54.4071 94.0571 53.4308ZM96.5319 54.4914C96.1414 54.1009 95.5082 54.1009 95.1177 54.4914C94.7272 54.8819 94.7272 55.5151 95.1177 55.9056C95.5082 56.2962 96.1414 56.2962 96.5319 55.9056C96.9225 55.5151 96.9225 54.8819 96.5319 54.4914ZM100.698 48.5119C101.563 48.7803 102.24 49.4574 102.509 50.3222L102.715 50.9865C103.459 53.3806 102.815 55.9899 101.042 57.7627L100.044 58.7607C101.072 60.1303 100.962 62.0824 99.7165 63.3282L98.474 64.5707C98.1811 64.8636 97.7062 64.8636 97.4133 64.5707L95.8237 62.9812L95.6469 63.1579C94.9635 63.8414 93.8555 63.8414 93.1721 63.1579L92.685 62.6709L91.8737 64.0612C91.7565 64.2621 91.5528 64.3972 91.3221 64.4271C91.0915 64.4569 90.8601 64.378 90.6956 64.2136L86.8065 60.3245C86.6431 60.1611 86.5641 59.9315 86.5925 59.7021C86.6209 59.4728 86.7534 59.2693 86.9517 59.1506L88.3362 58.3221L87.8655 57.8514C87.1821 57.168 87.1821 56.0599 87.8655 55.3765L88.0453 55.1967L86.4543 53.6057C86.1614 53.3128 86.1614 52.838 86.4543 52.5451L87.6969 51.3025C88.9432 50.0562 90.8962 49.9474 92.266 50.976L93.2618 49.9801C95.034 48.208 97.642 47.5636 100.036 48.3064L100.698 48.5119ZM101.076 50.7673C100.954 50.3743 100.646 50.0665 100.253 49.9445L99.5909 49.739C97.7293 49.1613 95.7008 49.6625 94.3225 51.0408L88.9261 56.4372C88.8285 56.5348 88.8285 56.6931 88.9261 56.7907L94.2327 62.0973C94.3303 62.1949 94.4886 62.1949 94.5863 62.0973L99.9815 56.7021C101.36 55.3232 101.861 53.2938 101.283 51.4317L101.076 50.7673ZM87.6899 64.3942C87.9828 64.1013 87.9828 63.6264 87.6899 63.3335C87.397 63.0406 86.9221 63.0406 86.6292 63.3335L84.1543 65.8084C83.8614 66.1013 83.8614 66.5762 84.1543 66.8691C84.4472 67.162 84.9221 67.162 85.215 66.8691L87.6899 64.3942ZM85.7453 61.389C86.0382 61.6819 86.0382 62.1568 85.7453 62.4497L84.6846 63.5103C84.3917 63.8032 83.9169 63.8032 83.624 63.5103C83.3311 63.2174 83.3311 62.7425 83.624 62.4497L84.6846 61.389C84.9775 61.0961 85.4524 61.0961 85.7453 61.389ZM89.6324 66.3408C89.9253 66.0479 89.9253 65.5731 89.6324 65.2802C89.3395 64.9873 88.8646 64.9873 88.5717 65.2802L87.5131 66.3387C87.2202 66.6316 87.2202 67.1065 87.5131 67.3994C87.806 67.6923 88.2809 67.6923 88.5738 67.3994L89.6324 66.3408Z" fill="#212121"/>
<path d="M115 48C113.343 48 112 49.3432 112 51C112 51.1844 112.017 51.3651 112.049 51.5406C110.883 51.7531 110 52.7734 110 54C110 54.6814 110.273 55.2991 110.715 55.75C110.273 56.2009 110 56.8186 110 57.5C110 58.8807 111.119 60 112.5 60H114.25V64.6893L110.78 61.2197C110.487 60.9268 110.013 60.9268 109.72 61.2197C109.427 61.5126 109.427 61.9874 109.72 62.2803L114.25 66.8107V68.25C114.25 68.6642 114.586 69 115 69C115.414 69 115.75 68.6642 115.75 68.25V66.8107L120.28 62.2803C120.573 61.9874 120.573 61.5126 120.28 61.2197C119.987 60.9268 119.513 60.9268 119.22 61.2197L115.75 64.6893V60H117.5C118.881 60 120 58.8807 120 57.5C120 56.8186 119.727 56.2009 119.285 55.75C119.727 55.2991 120 54.6814 120 54C120 52.7734 119.117 51.7531 117.951 51.5406C117.983 51.3651 118 51.1844 118 51C118 49.3432 116.657 48 115 48Z" fill="#212121"/>
<g clip-path="url(#clip1_603_104)">
<path d="M143.725 118.428C143.423 118.345 143.101 118.459 142.918 118.713C142.735 118.967 142.729 119.308 142.903 119.568L146.548 125.018C145.813 124.591 145.16 124.316 144.594 124.144C143.881 123.927 143.314 123.875 142.904 123.885C142.7 123.89 142.537 123.911 142.417 123.933C142.357 123.944 142.307 123.955 142.269 123.965C142.25 123.97 142.233 123.974 142.22 123.978L142.201 123.984L142.194 123.987L142.19 123.988L142.189 123.988C142.187 123.989 142.187 123.989 142.187 123.989C141.966 124.063 141.791 124.236 141.716 124.457C141.64 124.679 141.672 124.922 141.802 125.117L147.362 133.429C148.359 134.921 150.378 135.322 151.87 134.324L161.429 127.93C162.921 126.932 163.321 124.914 162.324 123.422L156.764 115.11C156.634 114.915 156.421 114.793 156.188 114.778C155.954 114.764 155.728 114.858 155.574 115.035C155.574 115.035 155.575 115.035 155.573 115.036L155.572 115.037L155.57 115.04L155.565 115.046L155.553 115.061C155.544 115.072 155.533 115.086 155.521 115.101C155.497 115.133 155.468 115.174 155.435 115.226C155.369 115.329 155.288 115.471 155.205 115.658C155.039 116.033 154.87 116.577 154.799 117.319C154.742 117.908 154.747 118.616 154.86 119.458L151.215 114.009C151.041 113.748 150.724 113.624 150.419 113.696C150.115 113.768 149.887 114.022 149.848 114.332L149.848 114.335L149.847 114.339L149.845 114.352L149.84 114.4C149.835 114.441 149.829 114.501 149.822 114.577C149.808 114.729 149.79 114.948 149.775 115.224C149.744 115.775 149.723 116.556 149.761 117.481C149.809 118.678 149.955 120.132 150.311 121.651C149.044 120.741 147.756 120.051 146.668 119.549C145.827 119.162 145.098 118.883 144.576 118.701C144.315 118.61 144.106 118.542 143.96 118.497C143.887 118.475 143.83 118.458 143.79 118.446L143.744 118.433L143.731 118.429L143.727 118.428L143.725 118.428Z" fill="#212121"/>
</g>
<path d="M65.25 32C63.1093 32 61.2543 33.223 60.3455 35.0084C62.6385 35.1198 64.6418 36.3346 65.8359 38.1331C66.2939 38.0457 66.7666 38 67.25 38H70.7276C70.7424 37.8353 70.75 37.6685 70.75 37.5V33.4409C70.75 32.6451 70.1049 32 69.3091 32H65.25ZM60.1759 47.9975C60.1174 47.9992 60.0588 48 60 48C56.6863 48 54 45.3137 54 42V37.5136C54 36.6777 54.6777 36 55.5136 36H60C61.9662 36 63.7116 36.9458 64.8059 38.4073C63.1584 38.9749 61.7707 40.1003 60.8684 41.5578L59.2802 39.9697C58.9873 39.6768 58.5125 39.6768 58.2196 39.9697C57.9267 40.2626 57.9267 40.7374 58.2196 41.0303L60.18 42.9908C59.9016 43.7753 59.75 44.62 59.75 45.5C59.75 46.3756 59.9001 47.2162 60.1759 47.9975ZM60.75 45.5C60.75 41.9101 63.6601 39 67.25 39H72.1636C73.0398 39 73.75 39.7102 73.75 40.5864V45.5C73.75 49.0899 70.8399 52 67.25 52C65.7253 52 64.3233 51.4751 63.2147 50.5961L62.0304 51.7803C61.7376 52.0732 61.2627 52.0732 60.9698 51.7803C60.6769 51.4874 60.6769 51.0126 60.9698 50.7197L62.154 49.5354C61.275 48.4268 60.75 47.0247 60.75 45.5ZM63.9274 49.8834L68.5304 45.2803C68.8233 44.9874 68.8233 44.5126 68.5304 44.2197C68.2375 43.9268 67.7626 43.9268 67.4697 44.2197L62.8667 48.8227C63.1703 49.2226 63.5274 49.5797 63.9274 49.8834Z" fill="#212121"/>
<g clip-path="url(#clip2_603_104)">
<path d="M119.23 115.312L119.313 115.387C120.986 114.193 123.32 114.269 124.918 115.695L125.564 116.27C125.976 116.638 126.012 117.27 125.645 117.682C125.277 118.094 124.645 118.131 124.233 117.763L123.587 117.187C122.822 116.505 121.754 116.38 120.878 116.782L125.474 120.879L126.196 120.573C127.931 119.837 129.936 120.168 131.343 121.422L131.621 121.67C133.218 123.094 133.562 125.404 132.567 127.203L132.66 127.285C133.072 127.653 133.108 128.285 132.741 128.697C132.373 129.109 131.741 129.146 131.329 128.778L131.236 128.696C129.564 129.888 127.231 129.814 125.631 128.388L125.001 127.825C124.588 127.458 124.552 126.826 124.92 126.414C125.287 126.001 125.919 125.965 126.332 126.333L126.962 126.895C127.728 127.578 128.796 127.703 129.671 127.301L125.088 123.215L124.372 123.519C122.633 124.256 120.625 123.924 119.215 122.668L118.929 122.412C117.331 120.987 116.988 118.678 117.983 116.88L117.899 116.805C117.487 116.438 117.451 115.806 117.818 115.393C118.186 114.981 118.818 114.945 119.23 115.312ZM119.547 118.275C119.248 119.19 119.495 120.237 120.26 120.92L120.546 121.175C121.336 121.879 122.444 122.091 123.433 121.739L119.547 118.275ZM127.129 122.355L131.002 125.808C131.302 124.892 131.055 123.845 130.29 123.163L130.012 122.915C129.223 122.212 128.116 122.001 127.129 122.355ZM122.89 111.207C122.523 111.619 122.559 112.252 122.971 112.619C123.382 112.985 124.011 112.951 124.379 112.543L124.383 112.538L126.047 110.672C126.591 110.062 127.368 109.781 128.124 109.844L125.13 113.204C124.762 113.616 124.798 114.248 125.211 114.615C125.623 114.983 126.255 114.947 126.622 114.534L129.917 110.84C130.614 111.772 130.584 113.097 129.779 113.999L128.115 115.865C127.867 116.144 127.795 116.537 127.927 116.886C128.059 117.234 128.374 117.48 128.745 117.524L140.867 118.954C141.416 119.018 141.913 118.626 141.977 118.078C142.042 117.529 141.65 117.032 141.101 116.968L130.886 115.763L131.272 115.33C132.813 113.601 132.776 111.013 131.262 109.33L131.946 108.563C132.314 108.151 132.278 107.519 131.865 107.151C131.453 106.784 130.821 106.82 130.453 107.232L129.617 108.17C129.268 108.027 128.905 107.93 128.537 107.879L129.707 106.567C130.074 106.154 130.038 105.522 129.626 105.155C129.214 104.787 128.582 104.823 128.214 105.236L122.89 111.207Z" fill="#212121"/>
</g>
<g clip-path="url(#clip3_603_104)">
<path d="M104.793 96.4565C104.296 96.6987 104.09 97.2974 104.332 97.7937L106.744 102.737C107.508 104.302 108.725 105.394 110.184 105.884C111.345 106.274 112.607 106.266 113.838 105.872L114.198 106.61C115.712 109.712 119.454 111 122.556 109.486C125.658 107.972 126.946 104.23 125.432 101.128L125.144 100.538C126.132 99.5864 126.444 98.0708 125.81 96.7713C125.022 95.1582 123.077 94.4887 121.463 95.2758C119.85 96.063 119.181 98.0088 119.968 99.6219C120.602 100.921 121.988 101.609 123.347 101.415L123.635 102.005C124.664 104.115 123.788 106.659 121.679 107.689C119.57 108.718 117.025 107.843 115.996 105.733L115.635 104.995C116.704 104.267 117.487 103.277 117.894 102.122C118.405 100.67 118.293 99.0388 117.529 97.474L115.117 92.531C114.875 92.0347 114.276 91.8287 113.78 92.0709L111.984 92.947C111.488 93.1892 111.282 93.7879 111.524 94.2843C111.766 94.7806 112.365 94.9866 112.861 94.7444L113.758 94.3069L115.731 98.3511C116.284 99.4823 116.324 100.558 116.007 101.458C115.689 102.36 114.983 103.167 113.891 103.7C112.798 104.233 111.728 104.293 110.821 103.988C109.917 103.685 109.094 102.991 108.542 101.86L106.568 97.8153L107.467 97.3767C107.963 97.1345 108.169 96.5358 107.927 96.0395C107.685 95.5432 107.086 95.3371 106.59 95.5793L104.793 96.4565ZM122.341 97.0732C122.961 96.7705 123.709 97.028 124.012 97.6484C124.315 98.2689 124.057 99.0172 123.437 99.32C122.816 99.6228 122.068 99.3653 121.765 98.7448C121.463 98.1244 121.72 97.376 122.341 97.0732Z" fill="#212121"/>
</g>
<g clip-path="url(#clip4_603_104)">
<path d="M126.828 140.289C127.653 139.36 127.568 137.938 126.639 137.113C125.71 136.288 124.288 136.372 123.463 137.302C122.638 138.231 122.722 139.653 123.651 140.478C124.581 141.303 126.003 141.218 126.828 140.289ZM121.207 143.122C120.085 143.655 119.602 144.997 120.126 146.123C120.653 147.253 121.994 147.736 123.12 147.201L126.087 145.792C126.45 145.62 126.88 145.681 127.18 145.948L129.453 147.966L132.286 152.994C132.896 154.076 134.268 154.46 135.351 153.849C136.434 153.239 136.817 151.867 136.207 150.785L134.118 147.077C134.001 146.87 134.212 146.632 134.431 146.724L138.36 148.359C139.507 148.837 140.825 148.294 141.302 147.147C141.78 145.999 141.237 144.682 140.09 144.205L134.764 141.984L132.49 139.964C132.19 139.698 132.078 139.277 132.206 138.897L133.252 135.789C133.649 134.608 133.011 133.333 131.827 132.944C130.647 132.557 129.371 133.196 128.975 134.373L128.419 136.027C128.301 136.377 128.351 136.74 128.504 137.031C129.217 138.389 129.058 140.101 127.982 141.314C126.905 142.526 125.224 142.887 123.791 142.34C123.484 142.222 123.118 142.215 122.783 142.374L121.207 143.122Z" fill="#212121"/>
</g>
<path d="M98.8755 78.6611C99.2633 78.8771 99.7237 78.9998 100.246 78.9998C101.093 78.9998 101.801 78.693 102.293 78.1562C102.774 77.6301 102.996 76.9397 102.996 76.25C102.996 75.8358 102.66 75.5 102.246 75.5C101.832 75.5 101.496 75.8358 101.496 76.25C101.496 76.6269 101.376 76.9365 101.186 77.1435C101.006 77.34 100.714 77.4998 100.246 77.4998C99.7974 77.4998 99.5155 77.3377 99.332 77.1292C99.1473 76.9194 99.0279 76.6208 99 76.2896V74.25C99 73.008 100.006 72 101.249 72L104.435 72C104.944 72 105.442 72.1414 105.875 72.4079L108.643 74.1113C108.865 74.2478 109 74.4895 109 74.75V76.25C109 77.4926 107.993 78.5 106.75 78.5H106.5V88.0329C107.419 88.1215 108.118 88.3993 108.547 88.9975C108.804 89.3557 108.907 89.7575 108.955 90.1257C109 90.4778 109 90.862 109 91.2162V91.25C109 91.6642 108.664 92 108.25 92H104.998V91.2256C104.999 90.6541 105 89.0178 103.498 88.0572V85.2527C103.498 84.8385 103.162 84.5027 102.748 84.5027C102.334 84.5027 101.998 84.8385 101.998 85.2527V87.5189C101.836 87.5012 101.669 87.493 101.498 87.493C101.425 87.493 101.353 87.495 101.301 87.497C101.275 87.4979 101.252 87.4989 101.237 87.4996L101.218 87.5006L101.212 87.5009L101.209 87.501C100.796 87.5235 100.479 87.877 100.501 88.2906C100.524 88.7042 100.877 89.0213 101.291 88.9988L101.294 88.9986L101.307 88.998L101.356 88.9959C101.398 88.9944 101.45 88.993 101.498 88.993C101.93 88.993 102.213 89.0659 102.399 89.1636C102.41 89.1693 102.421 89.1747 102.432 89.1798C103.471 89.6636 103.498 90.6188 103.498 91.2499V92H93.8333C91.7162 92 90 90.2838 90 88.1667C90 86.7686 90.7489 85.5462 91.8639 84.8774C92.2191 84.6644 92.6797 84.7796 92.8928 85.1348C93.1059 85.49 92.9906 85.9507 92.6354 86.1638C91.9536 86.5727 91.5 87.3171 91.5 88.1667C91.5 89.4553 92.5447 90.5 93.8333 90.5C94.1519 90.5 94.35 90.4168 94.4816 90.3242C94.6208 90.2262 94.7296 90.086 94.8135 89.9168C94.898 89.7464 94.9467 89.5671 94.9735 89.4243C94.9866 89.3546 94.9936 89.2981 94.9972 89.2618C94.9988 89.246 94.9997 89.2343 95.0002 89.2273L95.0006 89.1925C95.0011 89.1586 95.0022 89.1104 95.0044 89.0493C95.0086 88.9273 95.017 88.7535 95.0335 88.5397C95.0665 88.1132 95.1323 87.5223 95.2646 86.8627C95.5237 85.5707 96.0605 83.8945 97.2161 82.7232C98.0641 81.8638 98.525 80.6045 98.7634 79.3592C98.809 79.1212 98.8458 78.8872 98.8755 78.6611Z" fill="#212121"/>
<g clip-path="url(#clip5_603_104)">
<path d="M147.584 96.177C148.328 97.1689 148.316 98.5363 147.555 99.5153L145.332 102.373C146.021 103.562 145.728 105.105 144.601 105.949L142.802 107.3C142.11 107.819 141.253 107.962 140.476 107.766C139.071 108.578 137.249 108.231 136.252 106.901C135.384 105.744 135.404 104.197 136.195 103.076L133.306 99.2257C132.009 99.6718 130.518 99.2583 129.65 98.1016C128.726 96.87 128.809 95.1958 129.757 94.0647C129.546 93.0524 129.918 91.963 130.799 91.3014L132.15 90.2883C133.159 89.5309 134.555 89.5579 135.534 90.3537L137.28 91.772L142.182 91.2297C143.149 91.1227 144.101 91.5346 144.684 92.3127L147.584 96.177ZM146.371 98.5946C146.717 98.1495 146.722 97.528 146.384 97.0771L145.5 95.8993L142.3 98.2998L144.412 101.114L146.371 98.5946ZM141.4 97.0999L144.6 94.6995L143.485 93.2129C143.219 92.8592 142.787 92.672 142.347 92.7206L138.439 93.1529L141.4 97.0999ZM140.251 103.9C139.671 103.127 138.574 102.97 137.801 103.55C137.028 104.13 136.871 105.227 137.451 106C138.032 106.774 139.128 106.93 139.902 106.35C140.675 105.77 140.831 104.673 140.251 103.9ZM133.3 97.5511C134.073 96.9711 134.23 95.8742 133.65 95.101C133.07 94.3279 131.973 94.1714 131.2 94.7514C130.427 95.3314 130.27 96.4283 130.85 97.2014C131.43 97.9746 132.527 98.1311 133.3 97.5511Z" fill="#212121"/>
</g>
<path d="M110 123.5V129.738C110 130.113 109.906 130.482 109.727 130.812L108.539 133H117.461L116.273 130.812C116.094 130.482 116 130.113 116 129.738V123.5H117C117.414 123.5 117.75 123.164 117.75 122.75C117.75 122.336 117.414 122 117 122H109C108.586 122 108.25 122.336 108.25 122.75C108.25 123.164 108.586 123.5 109 123.5H110ZM118.275 134.5H107.725L106.143 137.415C105.51 138.581 106.354 140 107.681 140H118.319C119.646 140 120.49 138.581 119.857 137.415L118.275 134.5Z" fill="#212121"/>
<g clip-path="url(#clip6_603_104)">
<path d="M104.443 103.791C104.424 103.393 104.247 103.02 103.951 102.753C103.339 102.203 102.397 102.252 101.846 102.864L99.8336 105.102L98.8106 104.182C98.6523 104.039 98.4408 103.971 98.2291 103.993C98.0173 104.016 97.8252 104.128 97.7006 104.301L89.6646 115.448C88.9928 116.379 89.1309 117.668 89.985 118.436L96.5326 124.327C97.3868 125.095 98.6827 125.096 99.5387 124.33L109.774 115.162C109.932 115.02 110.023 114.817 110.023 114.604C110.024 114.391 109.933 114.188 109.775 114.045L108.755 113.128L110.594 111.083C111.24 110.365 111.182 109.258 110.463 108.612L107.861 106.271C107.143 105.624 106.036 105.683 105.39 106.401L104.607 107.271L104.443 103.791ZM109.479 110.08L107.64 112.124L104.666 109.449L106.505 107.405C106.597 107.302 106.755 107.294 106.858 107.386L109.46 109.727C109.563 109.819 109.571 109.977 109.479 110.08ZM103.144 108.08L100.949 106.105L102.946 103.885L103.144 108.08ZM100.856 112.626L99.6906 112.922C99.2891 113.024 98.881 112.781 98.7792 112.379C98.6772 111.978 98.9201 111.57 99.3216 111.468L100.487 111.172C101.695 110.865 102.828 111.884 102.65 113.118L102.479 114.308C102.42 114.718 102.039 115.003 101.63 114.944C101.219 114.885 100.935 114.504 100.994 114.094L101.165 112.904C101.191 112.727 101.029 112.582 100.856 112.626ZM97.292 113.748L96.6154 113.956C96.2438 114.07 96.1387 114.546 96.4277 114.806L97.0166 115.336C97.3246 115.613 97.3496 116.087 97.0726 116.395C96.7956 116.703 96.3214 116.728 96.0134 116.451L95.4245 115.921C94.2687 114.881 94.6892 112.978 96.1753 112.522L96.8519 112.314C97.2479 112.193 97.6675 112.415 97.7889 112.811C97.9105 113.207 97.688 113.627 97.292 113.748ZM101.306 115.975C101.713 116.055 101.978 116.449 101.899 116.855L101.763 117.551C101.465 119.076 99.6176 119.693 98.4624 118.654L97.872 118.123C97.5641 117.846 97.539 117.372 97.816 117.064C98.0931 116.756 98.5673 116.731 98.8752 117.008L99.4656 117.539C99.7544 117.799 100.216 117.644 100.291 117.263L100.426 116.568C100.506 116.161 100.9 115.896 101.306 115.975Z" fill="#212121"/>
</g>
<path d="M81.5075 73.4491C81.5608 73.4674 81.6129 73.4886 81.6635 73.5125C81.6537 73.4694 81.6425 73.4264 81.63 73.3834L80.3702 69.0586C80.0227 67.8655 78.7738 67.1801 77.5808 67.5276L74.2198 68.506L74.0111 67.7867L73.976 67.6909C73.826 67.3533 73.4458 67.1702 73.0813 67.2763L72.9855 67.3114C72.6479 67.4614 72.4648 67.8416 72.571 68.2062L72.7796 68.9255L69.4199 69.9046C68.2268 70.2522 67.5414 71.501 67.8889 72.6941L69.1486 77.019C69.4961 78.212 70.745 78.8975 71.9381 78.55L79.4116 76.3731C79.4131 76.3546 79.4143 76.3362 79.4152 76.3177L79.4162 76.2899L79.4614 74.8349L79.4621 74.8225C79.48 74.5034 79.5965 74.1978 79.7953 73.9478C79.9941 73.6979 80.2656 73.5157 80.5722 73.4264C80.8787 73.3371 81.2056 73.345 81.5075 73.4491ZM72.1784 72.2258C72.8408 72.0329 73.5342 72.4135 73.7271 73.0759C73.9201 73.7384 73.5395 74.4318 72.8771 74.6247C72.2147 74.8177 71.5212 74.4371 71.3283 73.7746C71.1353 73.1122 71.5159 72.4188 72.1784 72.2258ZM76.4919 70.9694C77.1543 70.7764 77.8477 71.157 78.0407 71.8195C78.2336 72.4819 77.8531 73.1753 77.1906 73.3683C76.5281 73.5613 75.8347 73.1807 75.6418 72.5182C75.4488 71.8558 75.8294 71.1624 76.4919 70.9694ZM77.4477 78.5407L77.5456 78.4741L70.9195 80.4041C69.7264 80.7516 69.041 82.0005 69.3885 83.1936L69.6422 84.0647C69.9478 85.1139 70.6959 85.9775 71.6907 86.4298C73.5669 87.2828 75.9001 87.2871 78.6743 86.479C80.6674 85.8985 82.2439 85.0862 83.3916 84.0342C83.1724 84.0554 82.9499 84.0296 82.7395 83.957C82.4374 83.8529 82.1752 83.6577 81.9887 83.3981L81.9814 83.388L81.1617 82.1842L81.1607 82.1828C81.0425 82.011 80.896 81.861 80.728 81.7388C80.6661 81.6938 80.6014 81.6526 80.534 81.6155L80.1163 81.4646L79.7205 81.3888L78.2644 81.3444L78.252 81.3436C77.9331 81.3259 77.6274 81.2097 77.3772 81.0111C77.127 80.8123 76.9446 80.5409 76.8553 80.234C76.7659 79.9271 76.774 79.6002 76.8784 79.2981C76.9827 78.9962 77.1782 78.7341 77.4377 78.5479L77.4477 78.5407ZM81.0165 80.7396C81.1206 80.7969 81.2206 80.8606 81.3161 80.93C81.5762 81.1191 81.803 81.3517 81.9861 81.6182L82.8009 82.8148C82.8666 82.9062 82.959 82.975 83.0654 83.0117C83.1718 83.0484 83.2871 83.0511 83.3952 83.0197C83.5033 82.9882 83.599 82.9239 83.669 82.8358C83.7316 82.7572 83.771 82.663 83.7832 82.5639C83.7846 82.5519 83.7858 82.5399 83.7865 82.5277L83.8314 81.0807C83.848 80.6399 83.9672 80.209 84.1798 79.8223C84.3922 79.4355 84.6919 79.1037 85.0552 78.8529L86.2529 78.038C86.3444 77.9723 86.4132 77.88 86.45 77.7736C86.4867 77.6672 86.4897 77.5521 86.4582 77.444C86.4267 77.336 86.3624 77.2405 86.2743 77.1704C86.1861 77.1005 86.0785 77.0595 85.9661 77.0532L85.9376 77.0543L84.4897 77.0101C84.0487 76.9936 83.6175 76.8746 83.2306 76.6624C82.8437 76.4503 82.5118 76.1509 82.261 75.7879L81.446 74.5914C81.3804 74.5 81.288 74.4312 81.1816 74.3945C81.0752 74.3578 80.9599 74.355 80.8518 74.3865C80.7437 74.418 80.6481 74.4822 80.5779 74.5703C80.5078 74.6584 80.4668 74.7661 80.4606 74.8784L80.4157 76.3254L80.4142 76.3613C80.3944 76.786 80.2794 77.2011 80.0774 77.5757C79.8696 77.9609 79.5756 78.2927 79.2183 78.5456L78.0205 79.3604C77.9291 79.4261 77.8602 79.5184 77.8234 79.6248C77.7867 79.7312 77.7839 79.8463 77.8154 79.9544C77.8468 80.0624 77.911 80.158 77.9991 80.228C78.0873 80.298 78.195 80.339 78.3074 80.3452L79.7553 80.3894C80.1974 80.4064 80.6293 80.5263 81.0165 80.7396ZM88.9623 82.4028L89.7667 82.4274L89.7825 82.4268C89.8449 82.4302 89.9048 82.453 89.9537 82.4919C90.0027 82.5307 90.0384 82.5839 90.0559 82.6439C90.0734 82.7039 90.0718 82.7679 90.0513 82.8269C90.0309 82.8861 89.9926 82.9374 89.9418 82.9738L89.2765 83.4266C89.0747 83.5658 88.9081 83.7503 88.7901 83.9651C88.6721 84.1799 88.6058 84.4193 88.5966 84.6642L88.5716 85.4681C88.5681 85.5305 88.5453 85.5904 88.5064 85.6393C88.4674 85.6883 88.4143 85.7239 88.3542 85.7414C88.2941 85.7589 88.2302 85.7574 88.171 85.737C88.1119 85.7166 88.0606 85.6783 88.024 85.6276L87.5714 84.9628C87.4323 84.7604 87.2479 84.5932 87.0327 84.4748C86.8175 84.3562 86.5777 84.2896 86.3321 84.2802L85.5277 84.2556C85.4652 84.2521 85.4053 84.2294 85.3564 84.1905C85.3075 84.1516 85.2718 84.0985 85.2543 84.0385C85.2368 83.9785 85.2384 83.9145 85.2588 83.8554C85.2792 83.7963 85.3175 83.745 85.3683 83.7086L86.0337 83.2558C86.2322 83.1154 86.3955 82.931 86.511 82.717C86.6264 82.503 86.6907 82.2654 86.699 82.0224L86.7238 81.2185C86.7273 81.1562 86.7501 81.0963 86.7891 81.0473C86.828 80.9984 86.8812 80.9627 86.9413 80.9452C87.0013 80.9277 87.0653 80.9293 87.1244 80.9497C87.1836 80.97 87.2349 81.0083 87.2714 81.059L87.7242 81.7238C87.8634 81.9254 88.0479 82.0918 88.2628 82.2097C88.4777 82.3275 88.7172 82.3936 88.9623 82.4028Z" fill="#212121"/>
<path d="M138.139 157.006C138.847 157.006 139.25 157.71 139.25 158.417V162.75H138.355C138.058 162.017 137.339 161.5 136.5 161.5C135.395 161.5 134.5 162.395 134.5 163.5C134.5 164.605 135.395 165.5 136.5 165.5C137.339 165.5 138.058 164.983 138.355 164.25H139.25V175.148C139.25 175.744 138.998 176.337 138.467 176.609C138.013 176.841 137.491 176.996 136.908 176.996C135.397 176.996 134.274 176.232 133.551 175.328C133.02 174.664 132.671 173.883 132.532 173.191C132.129 173.074 131.674 172.854 131.262 172.501C130.552 171.892 130 170.911 130 169.466C130 168.711 130.054 168.053 130.189 167.5H134.4C135.078 167.5 135.639 168 135.735 168.651C135.01 168.952 134.5 169.666 134.5 170.5C134.5 171.605 135.395 172.5 136.5 172.5C137.605 172.5 138.5 171.605 138.5 170.5C138.5 169.658 137.979 168.937 137.242 168.642C137.136 167.165 135.904 166 134.4 166H131.039C131.17 165.892 131.313 165.801 131.469 165.727C131.491 165.717 131.513 165.707 131.535 165.698C131.429 165.331 131.374 164.947 131.357 164.571C131.324 163.836 131.434 163.071 131.652 162.39C131.868 161.719 132.21 161.067 132.69 160.616C132.992 160.333 133.366 160.119 133.786 160.049C133.985 159.21 134.492 158.515 135.139 158.012C135.97 157.364 137.058 157.006 138.139 157.006ZM140.75 172H142.4C143.974 172 145.25 170.724 145.25 169.15V167.355C145.983 167.058 146.5 166.339 146.5 165.5C146.5 164.395 145.605 163.5 144.5 163.5C143.395 163.5 142.5 164.395 142.5 165.5C142.5 166.339 143.017 167.058 143.75 167.355V169.15C143.75 169.896 143.146 170.5 142.4 170.5H140.75V163.507C140.75 163.505 140.75 163.502 140.75 163.5C140.75 163.498 140.75 163.495 140.75 163.493V158.417C140.75 157.71 141.153 157.006 141.861 157.006C142.942 157.006 144.03 157.364 144.861 158.012C145.508 158.515 146.015 159.21 146.214 160.049C146.634 160.119 147.008 160.333 147.31 160.616C147.79 161.067 148.132 161.719 148.348 162.39C148.566 163.071 148.676 163.836 148.643 164.571C148.626 164.947 148.571 165.331 148.465 165.698C148.487 165.707 148.509 165.717 148.531 165.727C148.901 165.902 149.2 166.175 149.425 166.538C149.85 167.223 150 168.209 150 169.466C150 170.911 149.448 171.892 148.738 172.501C148.326 172.854 147.871 173.074 147.468 173.191C147.329 173.883 146.98 174.664 146.449 175.328C145.726 176.232 144.603 176.996 143.092 176.996C142.51 176.996 141.987 176.841 141.533 176.609C141.002 176.337 140.75 175.744 140.75 175.148V172ZM136 163.5C136 163.224 136.224 163 136.5 163C136.776 163 137 163.224 137 163.5C137 163.776 136.776 164 136.5 164C136.224 164 136 163.776 136 163.5ZM136.5 170C136.224 170 136 170.224 136 170.5C136 170.776 136.224 171 136.5 171C136.776 171 137 170.776 137 170.5C137 170.224 136.776 170 136.5 170ZM144 165.5C144 165.776 144.224 166 144.5 166C144.776 166 145 165.776 145 165.5C145 165.224 144.776 165 144.5 165C144.224 165 144 165.224 144 165.5Z" fill="#212121"/>
<path d="M161 155C158.02 155 155.548 157.172 155.08 160.019C152.792 160.231 151 162.156 151 164.5C151 166.985 153.015 169 155.5 169H162.181L162.313 168.493C162.622 167.308 163.613 166.444 164.8 166.279C165.372 164.939 166.701 164 168.25 164C169.312 164 170.271 164.442 170.953 165.151C170.984 164.938 171 164.721 171 164.5C171 162.156 169.209 160.231 166.92 160.019C166.452 157.172 163.98 155 161 155ZM168.25 166.5C168.94 166.5 169.5 167.06 169.5 167.75C169.5 168.44 168.94 169 168.25 169C167.56 169 167 168.44 167 167.75C167 167.06 167.56 166.5 168.25 166.5ZM165.216 168.75H165.688C166.088 169.774 167.084 170.5 168.25 170.5C169.769 170.5 171 169.269 171 167.75C171 166.231 169.769 165 168.25 165C166.902 165 165.78 165.97 165.545 167.25H165.216C164.306 167.25 163.51 167.865 163.281 168.745L162.268 172.626C162.211 172.846 162.012 173 161.784 173H160.989C160.863 171.598 159.684 170.5 158.25 170.5C156.731 170.5 155.5 171.731 155.5 173.25C155.5 174.769 156.731 176 158.25 176C159.319 176 160.245 175.39 160.7 174.5H161.784C162.694 174.5 163.49 173.886 163.719 173.005L164.732 169.124C164.789 168.904 164.988 168.75 165.216 168.75ZM157 173.25C157 172.56 157.56 172 158.25 172C158.94 172 159.5 172.56 159.5 173.25C159.5 173.94 158.94 174.5 158.25 174.5C157.56 174.5 157 173.94 157 173.25Z" fill="#212121"/>
<path d="M154 189C158.418 189 162 187.209 162 185C162 182.791 158.418 181 154 181C149.582 181 146 182.791 146 185C146 187.209 149.582 189 154 189ZM160.328 189.17C160.916 188.876 161.498 188.504 162 188.053V197C162 199.209 158.418 201 154 201C149.582 201 146 199.209 146 197V188.053C146.502 188.504 147.084 188.876 147.672 189.17C149.369 190.019 151.608 190.5 154 190.5C156.391 190.5 158.631 190.019 160.328 189.17Z" fill="#212121"/>
<path d="M75 91.75C75 91.3358 75.3358 91 75.75 91C76.1642 91 76.5 91.3358 76.5 91.75V107.5H92.25C92.6642 107.5 93 107.836 93 108.25C93 108.664 92.6642 109 92.25 109H75.75C75.3358 109 75 108.664 75 108.25V91.75ZM86 95C86 93.3432 87.3431 92 89 92C90.6569 92 92 93.3432 92 95C92 96.6568 90.6569 98 89 98C87.3431 98 86 96.6568 86 95ZM81 94C79.3432 94 78 95.3432 78 97C78 98.6569 79.3432 100 81 100C82.6569 100 84 98.6569 84 97C84 95.3432 82.6569 94 81 94ZM87 100C85.3431 100 84 101.343 84 103C84 104.657 85.3431 106 87 106C88.6569 106 90 104.657 90 103C90 101.343 88.6569 100 87 100Z" fill="#212121"/>
<path d="M160.49 135.627C160.558 136.035 160.282 136.422 159.873 136.49L154.384 137.405L154.265 138H158.25C158.664 138 159 138.336 159 138.75V142.75C159 144.461 157.678 145.863 156 145.991V146.5C156 148.453 154.601 150.079 152.75 150.43V153.5H155.25C155.664 153.5 156 153.836 156 154.25C156 154.664 155.664 155 155.25 155H148.75C148.336 155 148 154.664 148 154.25C148 153.836 148.336 153.5 148.75 153.5H151.25V150.43C149.399 150.079 148 148.453 148 146.5V145.991C146.322 145.863 145 144.461 145 142.75V138.75C145 138.336 145.336 138 145.75 138H152.735L153.014 136.603C153.076 136.297 153.319 136.062 153.627 136.01L159.627 135.01C160.035 134.942 160.422 135.218 160.49 135.627ZM151.985 141.75L152.435 139.5H146.5V141.75H151.985ZM157.5 141.75V139.5H153.965L153.515 141.75H157.5Z" fill="#212121"/>
<path d="M75.4918 50.4308L76.6765 49.246C77.067 48.8555 77.7002 48.8555 78.0907 49.246L78.7978 49.9531C79.1883 50.3437 79.1883 50.9768 78.7978 51.3673L77.6131 52.5521L75.4918 50.4308ZM74.4311 51.4914L70.6106 55.3119L70.4513 55.1527C69.1241 53.8254 66.8866 54.1885 66.0471 55.8674L65.6308 56.7002C65.5081 56.9455 65.2364 57.0784 64.9674 57.0246L64.895 57.0102C63.1173 56.6546 61.2933 57.3515 60.2055 58.8019C58.4059 61.2014 58.6445 64.559 60.7654 66.6799L61.3639 67.2784C63.4847 69.3993 66.8424 69.6379 69.2419 67.8383C70.6923 66.7505 71.3892 64.9265 71.0336 63.1487L71.0191 63.0764C70.9653 62.8074 71.0982 62.5357 71.3436 62.413L72.1764 61.9966C73.8553 61.1572 74.2184 58.9197 72.8911 57.5924L72.7319 57.4332L76.5524 53.6127L74.4311 51.4914ZM66.4393 61.5603C65.8536 60.9745 65.8536 60.0247 66.4393 59.4389C67.0251 58.8531 67.9749 58.8531 68.5607 59.4389C69.1464 60.0247 69.1464 60.9745 68.5607 61.5603C67.9749 62.146 67.0251 62.146 66.4393 61.5603Z" fill="#212121"/>
<path d="M190.002 179C195.525 179 200.003 183.478 200.003 189.002C200.003 194.525 195.525 199.003 190.002 199.003C184.478 199.003 180 194.525 180 189.002C180 183.478 184.478 179 190.002 179ZM186.463 191.785C186.207 191.46 185.735 191.404 185.41 191.66C185.085 191.916 185.029 192.388 185.285 192.713C186.416 194.148 188.139 195.003 190.001 195.003C191.862 195.003 193.583 194.15 194.714 192.719C194.97 192.394 194.915 191.922 194.59 191.665C194.265 191.409 193.793 191.464 193.536 191.789C192.687 192.864 191.398 193.503 190.001 193.503C188.603 193.503 187.312 192.863 186.463 191.785ZM187.002 185.752C186.312 185.752 185.753 186.312 185.753 187.001C185.753 187.691 186.312 188.251 187.002 188.251C187.692 188.251 188.251 187.691 188.251 187.001C188.251 186.312 187.692 185.752 187.002 185.752ZM193.002 185.752C192.312 185.752 191.753 186.312 191.753 187.001C191.753 187.691 192.312 188.251 193.002 188.251C193.692 188.251 194.251 187.691 194.251 187.001C194.251 186.312 193.692 185.752 193.002 185.752Z" fill="#212121"/>
<g clip-path="url(#clip7_603_104)">
<path d="M164.011 200.25C164.745 200.258 165.476 200.343 166.192 200.503C166.505 200.573 166.739 200.834 166.774 201.152L166.945 202.679C167.022 203.38 167.613 203.911 168.319 203.912C168.509 203.912 168.696 203.872 168.872 203.795L170.272 203.18C170.564 203.052 170.904 203.121 171.121 203.354C172.134 204.435 172.887 205.731 173.326 207.146C173.421 207.451 173.312 207.782 173.055 207.972L171.813 208.887C171.459 209.147 171.25 209.56 171.25 210C171.25 210.439 171.459 210.852 171.814 211.113L173.057 212.028C173.314 212.218 173.423 212.549 173.328 212.854C172.89 214.268 172.136 215.565 171.125 216.646C170.907 216.878 170.567 216.948 170.276 216.821L168.87 216.205C168.467 216.028 168.005 216.054 167.625 216.274C167.245 216.494 166.992 216.881 166.943 217.318L166.774 218.844C166.74 219.159 166.511 219.418 166.203 219.492C164.754 219.836 163.245 219.836 161.797 219.492C161.488 219.418 161.26 219.159 161.225 218.844L161.056 217.32C161.006 216.884 160.753 216.498 160.373 216.279C159.993 216.06 159.532 216.034 159.131 216.209L157.724 216.826C157.433 216.953 157.093 216.883 156.875 216.651C155.863 215.568 155.11 214.271 154.672 212.855C154.577 212.55 154.686 212.219 154.943 212.029L156.187 211.113C156.541 210.853 156.75 210.44 156.75 210C156.75 209.561 156.541 209.148 156.186 208.887L154.944 207.973C154.686 207.783 154.577 207.452 154.672 207.147C155.111 205.732 155.864 204.436 156.877 203.355C157.094 203.122 157.434 203.053 157.726 203.181L159.126 203.796C159.529 203.973 159.992 203.946 160.374 203.723C160.755 203.502 161.008 203.114 161.057 202.678L161.227 201.152C161.262 200.833 161.496 200.573 161.809 200.503C162.527 200.343 163.258 200.259 164.011 200.25ZM165.575 206H162.303L165.408 210L162.635 213.514C162.533 213.644 162.555 213.833 162.685 213.936C162.738 213.977 162.803 214 162.871 214H165.575C165.668 214 165.755 213.957 165.812 213.884L168.59 210.307C168.73 210.126 168.73 209.874 168.59 209.693L165.812 206.116C165.755 206.043 165.668 206 165.575 206ZM161.677 206.803L159.413 209.692C159.292 209.847 159.274 210.056 159.361 210.227L159.413 210.308L161.415 212.864L161.464 212.913C161.576 213.002 161.73 212.999 161.837 212.914L161.886 212.865L163.222 211.186C163.291 211.099 163.306 210.983 163.265 210.884L163.223 210.814L162.585 210L163.366 209.004L161.677 206.803Z" fill="#212121"/>
<path d="M173.187 204.14C172.223 203.417 170.842 204.069 170.789 205.274L170.712 207H173C173.552 207 174 207.448 174 208C174 208.552 173.552 209 173 209H170.623L170.23 217.85C170.1 220.781 166.637 222.261 164.429 220.329L164.342 220.253C163.926 219.889 163.884 219.257 164.247 218.841C164.611 218.426 165.243 218.384 165.659 218.747L165.746 218.823C166.692 219.652 168.176 219.018 168.232 217.761L168.621 209H167C166.448 209 166 208.552 166 208C166 207.448 166.448 207 167 207H168.71L168.791 205.185C168.916 202.375 172.137 200.853 174.387 202.54L174.6 202.7C175.042 203.031 175.131 203.658 174.8 204.1C174.469 204.542 173.842 204.631 173.4 204.3L173.187 204.14ZM174.082 213.046C174.335 212.907 174.653 213.01 174.775 213.271L175.588 214.998L172.293 218.293C171.902 218.683 171.902 219.317 172.293 219.707C172.683 220.098 173.317 220.098 173.707 219.707L176.493 216.921L177.273 218.579C177.968 220.055 179.867 220.481 181.126 219.442L181.636 219.021C182.062 218.67 182.123 218.04 181.771 217.614C181.42 217.188 180.79 217.127 180.364 217.479L179.853 217.9C179.601 218.107 179.222 218.022 179.083 217.727L177.996 215.418L180.707 212.707C181.098 212.317 181.098 211.683 180.707 211.293C180.317 210.902 179.683 210.902 179.293 211.293L177.091 213.495L176.585 212.42C175.971 211.114 174.382 210.598 173.118 211.294L172.518 211.624C172.034 211.89 171.858 212.498 172.124 212.982C172.39 213.466 172.998 213.642 173.482 213.376L174.082 213.046Z" fill="#212121"/>
</g>
<path d="M190 204C190 201.791 188.209 200 186 200C183.791 200 182 201.791 182 204V206H179.5C178.672 206 178 206.672 178 207.5V218.5C178 219.328 178.672 220 179.5 220H185V219.811C185 219.346 185.184 218.901 185.513 218.573L189.034 215.052C189.011 214.871 189 214.687 189 214.5C189 212.015 191.015 210 193.5 210C193.669 210 193.836 210.009 194 210.028V207.5C194 206.672 193.328 206 192.5 206H190V204ZM188.5 206H183.5V204C183.5 202.619 184.619 201.5 186 201.5C187.381 201.5 188.5 202.619 188.5 204V206ZM184.5 213C184.5 212.172 185.172 211.5 186 211.5C186.829 211.5 187.5 212.172 187.5 213C187.5 213.828 186.829 214.5 186 214.5C185.172 214.5 184.5 213.828 184.5 213ZM197 214.5C197 216.433 195.433 218 193.5 218H192V219C192 219.276 191.776 219.5 191.5 219.5H190.5V220.5C190.5 220.776 190.276 221 190 221H189V221.5C189 221.776 188.776 222 188.5 222H186.75C186.336 222 186 221.664 186 221.25V219.811C186 219.612 186.079 219.421 186.22 219.28L189.97 215.53C190.016 215.484 190.067 215.445 190.12 215.414C190.042 215.122 190 214.816 190 214.5C190 212.567 191.567 211 193.5 211C195.433 211 197 212.567 197 214.5ZM194 215C194.552 215 195 214.552 195 214C195 213.448 194.552 213 194 213C193.448 213 193 213.448 193 214C193 214.552 193.448 215 194 215Z" fill="#212121"/>
<path d="M127.079 71.4146C127.206 71.1605 127.466 71 127.75 71H129.25C129.534 71 129.794 71.1605 129.921 71.4146L130.921 73.4146C131.033 73.6389 131.026 73.9044 130.901 74.1221L130 75.6992V81H131.25C131.664 81 132 81.3358 132 81.75V83.5H125V81.75C125 81.3358 125.336 81 125.75 81H127V75.6992L126.099 74.1221C125.974 73.9044 125.967 73.6389 126.079 73.4146L127.079 71.4146ZM125 85V87.5C125 89.433 126.567 91 128.5 91C130.433 91 132 89.433 132 87.5V85H125ZM119.828 71.2123C120.034 71.0727 120.295 71.0439 120.526 71.1355C122.56 71.9418 124 73.9268 124 76.25C124 78.3741 122.796 80.2154 121.036 81.1317V88.4641C121.036 89.8645 119.9 90.9998 118.5 90.9998C117.1 90.9998 115.964 89.8645 115.964 88.4641V81.1317C114.204 80.2154 113 78.3741 113 76.25C113 73.9269 114.44 71.9419 116.473 71.1356C116.704 71.044 116.966 71.0728 117.171 71.2124C117.377 71.352 117.5 71.5843 117.5 71.8328V75.4999C117.5 76.0522 117.948 76.4999 118.5 76.4999C119.052 76.4999 119.5 76.0522 119.5 75.4999V71.8327C119.5 71.5843 119.623 71.3519 119.828 71.2123Z" fill="#212121"/>
<path d="M163.677 191.771C163.458 192.32 163.465 192.903 163.609 193.421L163.932 194.581C164.168 195.426 164.781 196.119 165.595 196.452C168.372 197.591 170.64 198.439 172.534 198.68C174.487 198.929 176.11 198.541 177.502 197.181C178.426 196.279 178.108 194.892 177.219 194.231C176.542 193.727 175.759 193.154 174.988 192.594C174.481 192.225 174.158 191.655 174.106 191.032L173.98 189.527C171.085 189.076 168.764 186.695 168.508 183.646C168.386 182.184 168.757 180.794 169.483 179.642C168.001 180.291 166.34 181.272 164.423 182.465C163.676 182.929 163.187 183.714 163.095 184.587L162.969 185.784C162.913 186.32 163.003 186.895 163.311 187.4C163.394 187.537 163.483 187.677 163.576 187.819C163.797 188.156 163.933 188.528 163.965 188.903L164.072 190.18C164.103 190.556 164.031 190.944 163.869 191.314C163.801 191.469 163.736 191.622 163.677 191.771ZM168.967 189.127C169.013 189.677 168.605 190.161 168.054 190.207C167.504 190.253 167.02 189.844 166.974 189.294C166.928 188.744 167.337 188.26 167.887 188.214C168.438 188.168 168.921 188.577 168.967 189.127ZM174.526 177.623C177.553 177.369 180.213 179.617 180.466 182.644C180.72 185.671 178.472 188.331 175.445 188.584C172.418 188.838 169.758 186.59 169.505 183.563C169.251 180.536 171.499 177.876 174.526 177.623ZM171.498 183.396C171.521 183.671 171.762 183.875 172.038 183.852L176.024 183.518C176.299 183.495 176.503 183.253 176.48 182.978C176.457 182.703 176.215 182.499 175.94 182.522L171.954 182.856C171.679 182.879 171.475 183.121 171.498 183.396ZM178.598 182.801C178.569 182.457 178.267 182.201 177.923 182.23C177.579 182.259 177.323 182.561 177.352 182.905C177.381 183.249 177.683 183.505 178.027 183.476C178.371 183.447 178.627 183.145 178.598 182.801Z" fill="#212121"/>
<path d="M190.356 157.595C190.444 157.483 190.61 157.468 190.717 157.563L191.639 158.375L188.738 162H190.659L192.765 159.368L194.417 160.825C194.519 160.915 194.53 161.069 194.444 161.173L193.752 162H195.697C196.191 161.279 196.078 160.289 195.409 159.7L191.71 156.437C190.956 155.773 189.799 155.878 189.177 156.667L184.976 162H186.886L190.356 157.595ZM181.25 161.5C180.836 161.5 180.5 161.836 180.5 162.25C180.5 162.664 180.836 163 181.25 163H194.25C196.045 163 197.5 164.455 197.5 166.25V172.75C197.5 174.545 196.045 176 194.25 176H182.25C180.455 176 179 174.545 179 172.75V162.25C179 161.007 180.007 160 181.25 160H185.57L184.378 161.5H181.25ZM191.5 169.75C191.5 170.164 191.836 170.5 192.25 170.5H194.25C194.664 170.5 195 170.164 195 169.75C195 169.336 194.664 169 194.25 169H192.25C191.836 169 191.5 169.336 191.5 169.75Z" fill="#212121"/>
<path d="M168.75 135C168.336 135 168 135.336 168 135.75V138H165.75C165.336 138 165 138.336 165 138.75V143.514L163.539 144.049C163.342 144.121 163.185 144.273 163.104 144.467C163.024 144.661 163.029 144.879 163.117 145.07L165.452 150.088C165.617 150.033 165.793 150.003 165.974 150C166.751 149.989 167.441 150.49 167.671 151.231C167.673 151.235 167.676 151.244 167.681 151.258C167.693 151.292 167.715 151.349 167.748 151.423C167.816 151.574 167.919 151.767 168.056 151.95C168.332 152.317 168.62 152.5 169 152.5C169.38 152.5 169.668 152.318 169.943 151.951C170.08 151.768 170.182 151.575 170.25 151.423C170.283 151.35 170.305 151.293 170.317 151.259C170.322 151.245 170.326 151.236 170.327 151.232C170.553 150.501 171.229 150.001 171.996 150C172.763 149.999 173.44 150.497 173.669 151.228C173.67 151.231 173.673 151.241 173.679 151.255C173.691 151.289 173.713 151.346 173.746 151.42C173.815 151.572 173.918 151.765 174.056 151.949C174.334 152.318 174.623 152.5 175 152.5C175.377 152.5 175.666 152.318 175.943 151.949C176.08 151.766 176.183 151.572 176.252 151.42C176.285 151.347 176.308 151.289 176.32 151.256C176.325 151.242 176.328 151.232 176.33 151.229C176.561 150.488 177.253 149.987 178.031 150C178.238 150.004 178.438 150.044 178.623 150.115L181.091 145.084C181.185 144.892 181.193 144.669 181.113 144.471C181.032 144.273 180.871 144.119 180.67 144.047L179 143.451V138.75C179 138.336 178.664 138 178.25 138H176V135.75C176 135.336 175.664 135 175.25 135H168.75ZM174.5 138H169.5V136.5H174.5V138ZM177.5 139.5V142.916L173.103 141.347C172.388 141.092 171.606 141.095 170.893 141.356L166.5 142.965V139.5H177.5ZM178.727 151.563L178.724 151.555C178.637 151.232 178.347 151.006 178.013 151C177.678 150.994 177.38 151.211 177.283 151.531L177.282 151.533L177.279 151.542C177.275 151.553 177.269 151.573 177.259 151.6C177.239 151.653 177.208 151.734 177.163 151.832C177.074 152.031 176.935 152.293 176.742 152.55C176.355 153.065 175.803 153.5 175 153.5C174.197 153.5 173.644 153.065 173.257 152.549C173.063 152.292 172.925 152.031 172.835 151.832C172.791 151.733 172.759 151.653 172.74 151.599C172.73 151.573 172.723 151.553 172.719 151.542L172.716 151.532C172.716 151.532 172.716 151.532 172.716 151.532C172.62 151.216 172.328 150.999 171.998 151C171.667 151.001 171.376 151.217 171.281 151.533L171.28 151.534L171.277 151.543C171.273 151.555 171.267 151.575 171.257 151.601C171.238 151.654 171.207 151.735 171.162 151.833C171.073 152.032 170.935 152.293 170.743 152.55C170.357 153.065 169.806 153.5 169 153.5C168.194 153.5 167.642 153.065 167.256 152.55C167.063 152.293 166.926 152.032 166.836 151.833C166.792 151.734 166.761 151.654 166.741 151.601C166.732 151.574 166.725 151.554 166.721 151.543L166.718 151.532C166.62 151.212 166.323 150.995 165.989 151C165.655 151.005 165.365 151.23 165.277 151.552L165.274 151.561C165.271 151.571 165.265 151.59 165.256 151.615C165.239 151.666 165.21 151.743 165.169 151.839C165.084 152.031 164.949 152.286 164.752 152.537C164.368 153.027 163.756 153.5 162.75 153.5C162.336 153.5 162 153.836 162 154.25C162 154.664 162.336 155 162.75 155C164.324 155 165.337 154.223 165.933 153.463C165.956 153.433 165.979 153.404 166 153.374C166.019 153.399 166.037 153.425 166.056 153.45C166.608 154.185 167.556 155 169 155C170.444 155 171.392 154.185 171.943 153.45C171.963 153.424 171.982 153.398 172 153.372C172.019 153.398 172.038 153.424 172.058 153.451C172.61 154.185 173.558 155 175 155C176.442 155 177.39 154.185 177.942 153.45C177.96 153.425 177.979 153.4 177.997 153.375C178.018 153.404 178.04 153.433 178.063 153.462C178.658 154.223 179.672 155 181.25 155C181.664 155 182 154.664 182 154.25C182 153.836 181.664 153.5 181.25 153.5C180.238 153.5 179.627 153.027 179.245 152.538C179.048 152.287 178.915 152.033 178.831 151.84C178.789 151.745 178.761 151.668 178.744 151.617C178.735 151.592 178.73 151.574 178.727 151.563Z" fill="#212121"/>
<defs>
<clipPath id="clip0_603_104">
<rect width="24" height="24" fill="white" transform="translate(70 24.2596) rotate(-7.80602)"/>
</clipPath>
<clipPath id="clip1_603_104">
<rect width="24" height="24" fill="white" transform="translate(135 120.343) rotate(-33.7758)"/>
</clipPath>
<clipPath id="clip2_603_104">
<rect width="24" height="24" fill="white" transform="translate(112 118.914) rotate(-48.2815)"/>
</clipPath>
<clipPath id="clip3_603_104">
<rect width="24" height="24" fill="white" transform="translate(101 95.5254) rotate(-26.0118)"/>
</clipPath>
<clipPath id="clip4_603_104">
<rect width="24" height="24" fill="white" transform="translate(114 144.947) rotate(-48.4007)"/>
</clipPath>
<clipPath id="clip5_603_104">
<rect width="24" height="24" fill="white" transform="translate(141.198 81) rotate(53.1219)"/>
</clipPath>
<clipPath id="clip6_603_104">
<rect width="24" height="24" fill="white" transform="translate(99.0515 97) rotate(41.9755)"/>
</clipPath>
<clipPath id="clip7_603_104">
<rect width="24" height="24" fill="white" transform="translate(152 198)"/>
</clipPath>
</defs>
</svg>
