<svg width="61" height="85" viewBox="0 0 61 85" fill="none" xmlns="http://www.w3.org/2000/svg">
<path d="M60.76 65.888C60.696 66.144 60.6 66.368 60.472 66.56C60.408 66.752 60.28 66.976 60.088 67.232C60.216 67.168 60.12 67.264 59.8 67.52C59.544 67.712 59.448 67.776 59.512 67.712C59.448 67.712 59.384 67.744 59.32 67.808C59.192 68.448 59.096 69.056 59.032 69.632C59.032 70.208 59 70.816 58.936 71.456C58.872 72.48 58.744 73.6 58.552 74.816C58.424 76.096 58.296 77.248 58.168 78.272C58.104 78.912 57.976 79.68 57.784 80.576C57.656 81.536 57.528 82.336 57.4 82.976C57.336 83.168 57.272 83.36 57.208 83.552C57.208 83.744 57.144 83.904 57.016 84.032C57.016 84.096 56.952 84.128 56.824 84.128C56.76 84.128 56.728 84.096 56.728 84.032C56.6 83.904 56.504 83.744 56.44 83.552C56.44 83.424 56.408 83.296 56.344 83.168C56.152 82.592 55.992 81.856 55.864 80.96C55.736 80.128 55.608 79.456 55.48 78.944C55.224 77.472 55.032 75.776 54.904 73.856C54.84 72 54.648 70.368 54.328 68.96C54.264 69.28 54.232 69.6 54.232 69.92C54.232 70.304 54.168 70.656 54.04 70.976C53.976 71.104 53.848 71.168 53.656 71.168C53.528 71.232 53.4 71.328 53.272 71.456C53.208 71.456 53.112 71.488 52.984 71.552C52.92 71.68 52.888 71.712 52.888 71.648C52.824 71.328 52.76 71.008 52.696 70.688C52.696 70.368 52.664 70.048 52.6 69.728C52.6 69.792 52.568 69.856 52.504 69.92C52.44 70.048 52.376 70.176 52.312 70.304C52.248 70.432 52.184 70.56 52.12 70.688C52.12 70.688 52.088 70.688 52.024 70.688C52.024 70.752 52.024 70.816 52.024 70.88C52.024 70.88 51.928 70.976 51.736 71.168C51.544 71.424 51.416 71.552 51.352 71.552C51.224 71.68 51.096 71.744 50.968 71.744C50.904 72.768 50.84 73.76 50.776 74.72C50.776 75.744 50.712 76.736 50.584 77.696C50.584 77.76 50.52 77.792 50.392 77.792C50.264 77.792 50.168 77.76 50.104 77.696C50.04 76.608 50.008 75.84 50.008 75.392C50.008 75.008 50.008 74.688 50.008 74.432C50.008 74.24 49.976 73.92 49.912 73.472C49.848 73.024 49.688 72.256 49.432 71.168C49.112 70.784 48.792 70.368 48.472 69.92C48.408 69.856 48.376 69.792 48.376 69.728C48.376 69.664 48.344 69.6 48.28 69.536L47.896 68.96C47.832 68.832 47.8 68.704 47.8 68.576C47.8 68.512 47.768 68.448 47.704 68.384C47.704 68.576 47.64 68.672 47.512 68.672C47.512 68.672 47.384 68.608 47.128 68.48C47.064 68.672 46.968 68.864 46.84 69.056C46.712 69.248 46.552 69.408 46.36 69.536C46.232 69.664 46.136 69.728 46.072 69.728C45.944 69.856 45.88 70.08 45.88 70.4C45.88 70.72 45.784 70.848 45.592 70.784C45.4 70.72 45.304 70.528 45.304 70.208C45.368 69.952 45.336 69.728 45.208 69.536L44.824 69.152L44.248 68.48C44.248 68.544 44.216 68.576 44.152 68.576C44.216 68.576 44.088 68.48 43.768 68.288C43.512 68.16 43.384 68.096 43.384 68.096C43.384 68.096 43.224 68.16 42.904 68.288C42.648 68.48 42.392 68.64 42.136 68.768C41.88 68.96 41.624 68.96 41.368 68.768C41.112 68.64 40.952 68.48 40.888 68.288C40.888 68.096 40.824 67.872 40.696 67.616C40.376 67.36 40.056 67.072 39.736 66.752C39.48 66.432 39.224 66.08 38.968 65.696C38.712 65.248 38.456 64.864 38.2 64.544L37.72 63.776C37.592 63.584 37.432 63.392 37.24 63.2C37.112 62.944 36.984 62.72 36.856 62.528C36.728 62.336 36.6 62.144 36.472 61.952C36.344 61.76 36.216 61.536 36.088 61.28L35.512 60.416C34.936 59.84 34.36 59.136 33.784 58.304C33.272 57.472 32.728 56.576 32.152 55.616C31.64 54.912 31.096 54.112 30.52 53.216C29.944 52.256 29.4 51.296 28.888 50.336L25.048 44.576C24.536 43.936 24.088 43.296 23.704 42.656C23.64 42.528 23.576 42.4 23.512 42.272C23.448 42.144 23.352 42.048 23.224 41.984C23.096 41.728 23.032 41.6 23.032 41.6C22.904 41.408 22.84 41.312 22.84 41.312C22.84 41.248 22.84 41.376 22.84 41.696V63.488C22.84 63.872 22.84 64.288 22.84 64.736C22.904 65.12 22.904 65.504 22.84 65.888C22.84 65.76 22.808 65.824 22.744 66.08C22.68 66.272 22.68 66.336 22.744 66.272C22.744 66.336 22.712 66.4 22.648 66.464C22.648 66.528 22.616 66.56 22.552 66.56C22.552 66.56 22.552 66.592 22.552 66.656C22.552 66.72 22.52 66.752 22.456 66.752C22.456 66.752 22.456 66.784 22.456 66.848C22.136 67.232 21.816 67.52 21.496 67.712C21.368 67.84 21.272 67.968 21.208 68.096C21.08 68.224 21.016 68.352 21.016 68.48L20.632 69.152C20.568 69.344 20.472 69.504 20.344 69.632C20.28 69.824 20.184 70.016 20.056 70.208C19.48 71.488 18.84 72.768 18.136 74.048L17.272 75.968C17.272 76.032 17.24 76.064 17.176 76.064C17.176 76.064 17.176 76.096 17.176 76.16L16.792 76.736L16.504 77.024C16.504 77.024 16.472 77.024 16.408 77.024C16.408 77.024 16.408 77.056 16.408 77.12C16.344 77.12 16.248 77.184 16.12 77.312C16.056 78.528 15.992 79.744 15.928 80.96C15.928 82.176 15.864 83.424 15.736 84.704C15.672 84.896 15.576 84.8 15.448 84.416C15.384 84.096 15.352 83.84 15.352 83.648C15.224 82.56 15.16 81.44 15.16 80.288C15.16 79.2 15.096 78.112 14.968 77.024C14.84 76.96 14.712 76.8 14.584 76.544C14.52 76.544 14.456 76.512 14.392 76.448L13.72 75.296C13.656 75.104 13.56 74.912 13.432 74.72C13.368 74.528 13.304 74.304 13.24 74.048C13.176 73.856 13.112 73.664 13.048 73.472C12.984 73.28 12.888 73.056 12.76 72.8L11.896 70.208C11.832 70.08 11.768 69.92 11.704 69.728C11.704 69.536 11.672 69.376 11.608 69.248C11.48 69.888 11.416 70.528 11.416 71.168C11.416 71.808 11.352 72.48 11.224 73.184C11.16 73.248 11.096 73.184 11.032 72.992C10.968 72.864 10.904 72.768 10.84 72.704C10.712 72.576 10.584 72.384 10.456 72.128C10.2 71.68 9.944 71.232 9.688 70.784C9.496 70.336 9.24 69.952 8.92 69.632C8.792 69.504 8.696 69.44 8.632 69.44C8.568 69.632 8.408 69.856 8.152 70.112C8.024 70.24 7.832 70.336 7.576 70.4C7.384 70.528 7.192 70.656 7 70.784C6.808 70.976 6.648 71.168 6.52 71.36C6.392 71.616 6.2 71.808 5.944 71.936C5.688 72.128 5.4 72.16 5.08 72.032C4.824 71.776 4.696 71.712 4.696 71.84C4.632 72.544 4.696 73.664 4.888 75.2C5.08 76.736 5.24 78.272 5.368 79.808C5.56 81.344 5.592 82.496 5.464 83.264C5.4 84.096 5.016 84.16 4.312 83.456C3.416 82.496 2.968 81.216 2.968 79.616C3.032 78.016 3.224 76.416 3.544 74.816C3.928 73.216 4.088 71.936 4.024 70.976L3.64 70.4C3.576 70.272 3.48 70.08 3.352 69.824C3.288 69.632 3.256 69.6 3.256 69.728C3.128 70.368 3.096 71.008 3.16 71.648C3.288 72.288 3.192 72.864 2.872 73.376C2.68 73.632 2.584 73.568 2.584 73.184C2.584 72.864 2.616 72.416 2.68 71.84C2.744 71.328 2.744 70.912 2.68 70.592L2.008 67.904C1.752 67.776 1.528 67.648 1.336 67.52C0.632 67.008 0.28 66.304 0.28 65.408V3.392C0.28 3.136 0.344 2.816 0.472 2.432C0.664 1.856 0.952 1.472 1.336 1.27999C1.464 1.152 1.72 1.024 2.104 0.895994C2.296 0.831995 2.584 0.799995 2.968 0.799995H18.04C18.872 0.799995 19.544 0.927996 20.056 1.184C20.568 1.44 20.952 1.728 21.208 2.048C21.72 2.496 22.136 3.04 22.456 3.68C22.84 4.32 23.192 4.928 23.512 5.504L23.8 5.984L24.184 6.56C24.888 7.264 25.528 8.16 26.104 9.248C26.68 10.336 27.256 11.424 27.832 12.512L28.024 12.992L31.384 18.464C31.448 18.464 31.48 18.496 31.48 18.56C32.376 19.904 33.24 21.312 34.072 22.784C34.968 24.192 35.832 25.6 36.664 27.008L37.816 28.928L37.912 29.024L38.2 28.832V5.984C38.2 5.536 38.168 5.056 38.104 4.544C38.104 4.032 38.136 3.552 38.2 3.10399C38.2 2.78399 38.264 2.528 38.392 2.336C38.52 2.08 38.616 1.92 38.68 1.856C38.744 1.664 38.872 1.536 39.064 1.472C39.064 1.472 39.128 1.408 39.256 1.27999C39.704 0.959995 40.152 0.799995 40.6 0.799995C40.856 0.735996 41.112 0.703997 41.368 0.703997C41.624 0.703997 41.848 0.703997 42.04 0.703997C42.36 0.767996 42.648 0.799995 42.904 0.799995C43.224 0.799995 43.512 0.799995 43.768 0.799995H57.016C57.336 0.799995 57.656 0.799995 57.976 0.799995C58.36 0.735996 58.712 0.767996 59.032 0.895994C59.48 1.088 59.864 1.344 60.184 1.664C60.376 1.92 60.504 2.176 60.568 2.432C60.696 2.816 60.76 3.136 60.76 3.392C60.824 3.84 60.824 4.32 60.76 4.832C60.76 5.344 60.76 5.792 60.76 6.17599V62.144C60.824 62.784 60.856 63.424 60.856 64.064C60.92 64.704 60.888 65.312 60.76 65.888Z" fill="#FACC15"/>
</svg>
