<svg xmlns="http://www.w3.org/2000/svg" xmlns:xlink="http://www.w3.org/1999/xlink" viewBox="0 0 32 32" id="Reload"><defs><linearGradient id="a"><stop offset="0" stop-color="#facc15" class="stopColorffd800 svgShape"></stop><stop offset="1" stop-color="#ffcc00" class="stopColorff6100 svgShape"></stop></linearGradient><linearGradient id="b" x1="906.952" x2="931.379" y1="515.915" y2="546.094" gradientTransform="translate(-925.812 491.682) scale(1.02524)" gradientUnits="userSpaceOnUse" xlink:href="#a"></linearGradient></defs><g transform="translate(0 -1020.362)" fill="#000000" class="color000000 svgShape"><rect width="32" height="32" y="1020.362" fill="url(#b)" rx="6.763" ry="6.763"></rect><path fill="#ffffff" style="text-indent:0;text-align:start;line-height:normal;text-transform:none;block-progression:tb" d="M16.344 9a7.005 7.005 0 0 0-.938.031 6.965 6.965 0 0 0-2.469.656c-3.173 1.536-4.69 5.223-3.562 8.563 1.128 3.34 4.577 5.298 8.031 4.594a6.972 6.972 0 0 0 5.563-7.375.5.5 0 1 0-1 .062 5.992 5.992 0 0 1-11.656 2.375 5.978 5.978 0 0 1 3.062-7.312A6 6 0 0 1 20.469 12H19.5a.5.5 0 1 0 0 1h2a.5.5 0 0 0 .5-.5v-2a.5.5 0 0 0-.5-.5.5.5 0 0 0-.5.5v.625A7.038 7.038 0 0 0 16.344 9z" color="#000" font-family="sans-serif" font-weight="400" overflow="visible" transform="translate(0 1020.362)" class="colorffffff svgShape"></path></g></svg>