<svg xmlns="http://www.w3.org/2000/svg" xmlns:xlink="http://www.w3.org/1999/xlink" viewBox="0 0 1080 1080" width="1080" height="1080" preserveAspectRatio="xMidYMid meet" style="width: 100%; height: 100%; transform: translate3d(0px, 0px, 0px); content-visibility: visible;"><defs><clipPath id="__lottie_element_5185"><rect width="1080" height="1080" x="0" y="0"></rect></clipPath></defs><g clip-path="url(#__lottie_element_5185)"><g transform="matrix(8,0,0,8,-3779.998779296875,-3828.98193359375)" opacity="1" style="display: block;"><g opacity="1" transform="matrix(1,0,0,1,558.094970703125,577)"><path stroke-linecap="round" stroke-linejoin="round" fill-opacity="0" stroke="rgb(0,0,0)" stroke-opacity="1" stroke-width="2" d=" M7.558000087738037,5.940000057220459 C8.192000389099121,5.935999870300293 8.579999923706055,5.934000015258789 8.579999923706055,5.934000015258789"></path></g></g><g transform="matrix(8,0,0,8,-3779.998779296875,-3828.98193359375)" opacity="1" style="display: block;"><g opacity="1" transform="matrix(1,0,0,1,558.094970703125,577)"><path stroke-linecap="round" stroke-linejoin="round" fill-opacity="0" stroke="rgb(0,0,0)" stroke-opacity="1" stroke-width="2" d=" M-3.194999933242798,-5.052000045776367 C-3.194999933242798,-2.2160000801086426 -3.194999933242798,6 -3.194999933242798,6 C-3.194999933242798,6 4.695000171661377,5.955999851226807 7.558000087738037,5.940000057220459"></path></g></g><g transform="matrix(9.15164566040039,0,0,9.15164566040039,-4463.4423828125,-4500.392578125)" opacity="1" style="display: block;"><g opacity="1" transform="matrix(1,0,0,1,570.9019775390625,583.0009765625)"><path fill="rgb(255,0,162)" fill-opacity="1" d=" M1.2419999837875366,-3.803999900817871 C-0.8579999804496765,-4.48799991607666 -3.117000102996826,-3.3389999866485596 -3.802000045776367,-1.2419999837875366 C-3.802000045776367,-1.2419999837875366 -3.802000045776367,-1.2419999837875366 -3.802999973297119,-1.2419999837875366 C-4.486999988555908,0.8539999723434448 -3.3380000591278076,3.117000102996826 -1.2419999837875366,3.802000045776367 C-0.8330000042915344,3.934999942779541 -0.414000004529953,4.000999927520752 0.003000000026077032,4.000999927520752 C0.6240000128746033,4.000999927520752 1.2419999837875366,3.8559999465942383 1.8109999895095825,3.565999984741211 C2.7639999389648438,3.0820000171661377 3.4709999561309814,2.25600004196167 3.802999973297119,1.2400000095367432 C4.486999988555908,-0.8569999933242798 3.3380000591278076,-3.119999885559082 1.2419999837875366,-3.803999900817871z"></path></g><g opacity="1" transform="matrix(1,0,0,1,570.9019775390625,582.958984375)"><path stroke-linecap="round" stroke-linejoin="round" fill-opacity="0" stroke="rgb(0,0,0)" stroke-opacity="1" stroke-width="2" d=" M2.4579999446868896,1.7510000467300415 C2.628000020980835,1.5210000276565552 2.757999897003174,1.2610000371932983 2.8480000495910645,0.9710000157356262 C3.368000030517578,-0.5989999771118164 2.507999897003174,-2.2990000247955322 0.9279999732971191,-2.809000015258789 C-0.6420000195503235,-3.3289999961853027 -2.3420000076293945,-2.4690001010894775 -2.8519999980926514,-0.8889999985694885 C-3.361999988555908,0.6809999942779541 -2.502000093460083,2.38100004196167 -0.9319999814033508,2.8910000324249268 C-0.8320000171661377,2.9210000038146973 -0.7419999837875366,2.9509999752044678 -0.6420000195503235,2.9609999656677246"></path></g></g><g transform="matrix(8,0,0,8,-3779.998779296875,-3828.98193359375)" opacity="1" style="display: block;"><g opacity="1" transform="matrix(1,0,0,1,521.864990234375,577)"><path stroke-linecap="round" stroke-linejoin="round" fill-opacity="0" stroke="rgb(0,0,0)" stroke-opacity="1" stroke-width="2" d=" M2.0429999828338623,5.999000072479248 C0.9290000200271606,5.993000030517578 -9.934000015258789,5.934000015258789 -9.934000015258789,5.934000015258789"></path></g></g><g transform="matrix(8,0,0,8,-3779.998779296875,-3828.98193359375)" opacity="1" style="display: block;"><g opacity="1" transform="matrix(1,0,0,1,521.864990234375,577)"><path stroke-linecap="round" stroke-linejoin="round" fill-opacity="0" stroke="rgb(0,0,0)" stroke-opacity="1" stroke-width="2" d=" M2.134999990463257,-6 C2.134999990463257,-6 2.134999990463257,6 2.134999990463257,6 C2.134999990463257,6 2.1019999980926514,6 2.0409998893737793,5.999000072479248"></path></g></g><g transform="matrix(8.931133270263672,0,0,8.931133270263672,-4223.73974609375,-4371.83251953125)" opacity="1" style="display: block;"><g opacity="1" transform="matrix(1,0,0,1,508,583)"><path fill="rgb(255,0,162)" fill-opacity="1" d=" M3.802999973297119,-1.2410000562667847 C3.118000030517578,-3.3380000591278076 0.8550000190734863,-4.486999988555908 -1.2410000562667847,-3.802999973297119 C-3.3380000591278076,-3.118000030517578 -4.486999988555908,-0.8550000190734863 -3.802999973297119,1.2410000562667847 C-3.253000020980835,2.927999973297119 -1.6820000410079956,4 0.003000000026077032,4 C0.4129999876022339,4 0.8299999833106995,3.937000036239624 1.2410000562667847,3.802999973297119 C3.3380000591278076,3.118000030517578 4.486999988555908,0.8550000190734863 3.802999973297119,-1.2410000562667847z"></path></g><g opacity="1" transform="matrix(1,0,0,1,508,582.948974609375)"><path stroke-linecap="round" stroke-linejoin="round" fill-opacity="0" stroke="rgb(0,0,0)" stroke-opacity="1" stroke-width="2" d=" M0.7200000286102295,2.9509999752044678 C0.7900000214576721,2.940999984741211 0.8600000143051147,2.9210000038146973 0.9300000071525574,2.9010000228881836 C2.509999990463257,2.3910000324249268 3.369999885559082,0.6909999847412109 2.8499999046325684,-0.8790000081062317 C2.3399999141693115,-2.4590001106262207 0.6399999856948853,-3.319000005722046 -0.9300000071525574,-2.7990000247955322 C-2.509999990463257,-2.2890000343322754 -3.369999885559082,-0.5889999866485596 -2.8499999046325684,0.9810000061988831 C-2.740000009536743,1.3309999704360962 -2.559999942779541,1.6510000228881836 -2.3399999141693115,1.9210000038146973"></path></g></g><g transform="matrix(8,0,0,8,540.001220703125,843.01806640625)" opacity="1" style="display: block;"><g opacity="1" transform="matrix(1,0,0,1,0,0)"><path stroke-linecap="round" stroke-linejoin="round" fill-opacity="0" stroke="rgb(0,0,0)" stroke-opacity="1" stroke-width="2" d=" M0,-2.7290000915527344 C0,-1.715999960899353 0,1.8389999866485596 0,2.7730000019073486"></path></g></g><g transform="matrix(8,0,0,8,540.001220703125,843.01806640625)" opacity="1" style="display: block;"><g opacity="1" transform="matrix(1,0,0,1,0,0)"><path stroke-linecap="round" stroke-linejoin="round" fill-opacity="0" stroke="rgb(0,0,0)" stroke-opacity="1" stroke-width="2" d=" M0,-3 C0,-3 0,-2.9010000228881836 0,-2.7290000915527344"></path></g></g><g transform="matrix(8.043011665344238,0,0,8.043011665344238,-3803.227783203125,-3865.6240234375)" opacity="1" style="display: block;"><g opacity="1" transform="matrix(1,0,0,1,540.0640258789062,591)"><path fill="rgb(255,0,162)" fill-opacity="1" d=" M3.565999984741211,-1.812000036239624 C3.0829999446868896,-2.765000104904175 2.256999969482422,-3.4709999561309814 1.2410000562667847,-3.802999973297119 C-0.8600000143051147,-4.489999771118164 -3.11899995803833,-3.3380000591278076 -3.802999973297119,-1.2410000562667847 C-4.486999988555908,0.8550000190734863 -3.3380000591278076,3.117000102996826 -1.2410000562667847,3.802000045776367 C-0.8330000042915344,3.934999942779541 -0.4129999876022339,4.001999855041504 0.004000000189989805,4.001999855041504 C0.625,4.001999855041504 1.2419999837875366,3.8559999465942383 1.8109999895095825,3.565999984741211 C2.763000011444092,3.0820000171661377 3.4700000286102295,2.25600004196167 3.8010001182556152,1.2410000562667847 C4.132999897003174,0.22499999403953552 4.048999786376953,-0.859000027179718 3.565999984741211,-1.812000036239624z"></path></g><g opacity="1" transform="matrix(1,0,0,1,540.0020141601562,590.9979858398438)"><path stroke-linecap="round" stroke-linejoin="round" fill-opacity="0" stroke="rgb(0,0,0)" stroke-opacity="1" stroke-width="2" d=" M2.937999963760376,-0.8379999995231628 C2.677999973297119,-1.7580000162124634 1.968000054359436,-2.5280001163482666 0.9879999756813049,-2.8480000495910645 C-0.5820000171661377,-3.368000030517578 -2.2720000743865967,-2.507999897003174 -2.7920000553131104,-0.9279999732971191 C-3.302000045776367,0.6420000195503235 -2.441999912261963,2.3420000076293945 -0.871999979019165,2.8519999980926514 C-0.5019999742507935,2.9719998836517334 -0.12200000137090683,3.0220000743865967 0.23800000548362732,2.992000102996826"></path></g></g><g transform="matrix(8,0,0,8,-3779.998779296875,-3828.98193359375)" opacity="1" style="display: block;"><g opacity="1" transform="matrix(1,0,0,1,539.5009765625,540)"><path fill="rgb(0,69,115)" fill-opacity="1" d=" M29.358999252319336,14.170000076293945 C15.309000015258789,38.31999969482422 1.319000005722046,41.84000015258789 0.7289999723434448,41.970001220703125 C0.6489999890327454,41.9900016784668 0.5789999961853027,42 0.49900001287460327,42 C0.42899999022483826,42 0.35899999737739563,41.9900016784668 0.289000004529953,41.97999954223633 C-0.22100000083446503,41.869998931884766 -10.16100025177002,39.540000915527344 -21.400999069213867,25.770000457763672 C-24.020999908447266,22.559999465942383 -26.701000213623047,18.729999542236328 -29.361000061035156,14.170000076293945 C-31.111000061035156,11.170000076293945 -32.55099868774414,8.229999542236328 -33.73099899291992,5.400000095367432 C-42.08100128173828,-14.5600004196167 -37.680999755859375,-29.639999389648438 -37.46099853515625,-30.360000610351562 C-37.33100128173828,-30.780000686645508 -36.941001892089844,-31.06999969482422 -36.500999450683594,-31.06999969482422 C-36.500999450683594,-31.06999969482422 -29.500999450683594,-31.06999969482422 -29.500999450683594,-31.06999969482422 C-24.541000366210938,-31.06999969482422 -20.500999450683594,-35.52000045776367 -20.500999450683594,-41 C-20.500999450683594,-41.54999923706055 -20.051000595092773,-42 -19.500999450683594,-42 C-19.500999450683594,-42 19.548999786376953,-42 19.548999786376953,-42 C20.07900047302246,-41.970001220703125 20.499000549316406,-41.529998779296875 20.499000549316406,-41 C20.499000549316406,-35.52000045776367 24.538999557495117,-31.06999969482422 29.499000549316406,-31.06999969482422 C29.499000549316406,-31.06999969482422 36.499000549316406,-31.06999969482422 36.499000549316406,-31.06999969482422 C36.93899917602539,-31.06999969482422 37.32899856567383,-30.780000686645508 37.45899963378906,-30.360000610351562 C37.70899963378906,-29.540000915527344 43.41899871826172,-9.979999542236328 29.358999252319336,14.170000076293945z"></path></g><g opacity="1" transform="matrix(1,0,0,1,548.2080078125,540)"><path fill="rgb(3,38,58)" fill-opacity="1" d=" M20.652000427246094,14.170000076293945 C6.6020002365112305,38.31999969482422 -7.388000011444092,41.84000015258789 -7.978000164031982,41.970001220703125 C-8.057999610900879,41.9900016784668 -8.128000259399414,42 -8.208000183105469,42 C-8.277999877929688,42 -8.347999572753906,41.9900016784668 -8.418000221252441,41.97999954223633 C-8.928000450134277,41.869998931884766 -18.868000030517578,39.540000915527344 -30.107999801635742,25.770000457763672 C-27.06800079345703,23.540000915527344 -24.20800018310547,21 -24.20800018310547,21 C-24.20800018310547,21 -1.2079999446868896,17 -1.2079999446868896,17 C-1.2079999446868896,17 13.791999816894531,-11 14.791999816894531,-20 C15.522000312805176,-26.59000015258789 12.501999855041504,-36.939998626708984 10.842000007629395,-42 C11.371999740600586,-41.970001220703125 11.791999816894531,-41.529998779296875 11.791999816894531,-41 C11.791999816894531,-35.52000045776367 15.831999778747559,-31.06999969482422 20.79199981689453,-31.06999969482422 C20.79199981689453,-31.06999969482422 27.79199981689453,-31.06999969482422 27.79199981689453,-31.06999969482422 C28.23200035095215,-31.06999969482422 28.621999740600586,-30.780000686645508 28.75200080871582,-30.360000610351562 C29.00200080871582,-29.540000915527344 34.71200180053711,-9.979999542236328 20.652000427246094,14.170000076293945z"></path></g><g opacity="1" transform="matrix(1,0,0,1,539.5029907226562,540)"><path fill="rgb(255,57,104)" fill-opacity="1" d=" M30.41200065612793,-24.06100082397461 C30.15399932861328,-24.909000396728516 29.38599967956543,-25.479000091552734 28.499000549316406,-25.479000091552734 C28.499000549316406,-25.479000091552734 23.034000396728516,-25.479000091552734 23.034000396728516,-25.479000091552734 C19.83099937438965,-25.479000091552734 17.225000381469727,-28.410999298095703 17.225000381469727,-32.01599884033203 C17.225000381469727,-33.11899948120117 16.327999114990234,-34.01599884033203 15.225000381469727,-34.01599884033203 C15.225000381469727,-34.01599884033203 -15.229999542236328,-34.01599884033203 -15.229999542236328,-34.01599884033203 C-16.33300018310547,-34.01599884033203 -17.229999542236328,-33.11899948120117 -17.229999542236328,-32.01599884033203 C-17.229999542236328,-28.410999298095703 -19.834999084472656,-25.479000091552734 -23.038000106811523,-25.479000091552734 C-23.038000106811523,-25.479000091552734 -28.5049991607666,-25.479000091552734 -28.5049991607666,-25.479000091552734 C-29.391000747680664,-25.479000091552734 -30.159000396728516,-24.90999984741211 -30.417999267578125,-24.062000274658203 C-30.6200008392334,-23.399999618530273 -35.224998474121094,-7.63100004196167 -23.986000061035156,11.678000450134277 C-12.741000175476074,30.99799919128418 -0.5529999732971191,33.858001708984375 -0.03500000014901161,33.97100067138672 C0.10499999672174454,34.000999450683594 0.24699999392032623,34.01599884033203 0.3880000114440918,34.01599884033203 C0.5419999957084656,34.01599884033203 0.6959999799728394,33.99800109863281 0.843999981880188,33.9630012512207 C1.3250000476837158,33.85100173950195 12.741999626159668,30.98900032043457 23.981000900268555,11.678000450134277 C35.224998474121094,-7.638999938964844 30.621999740600586,-23.37299919128418 30.41200065612793,-24.06100082397461z"></path></g><g opacity="1" transform="matrix(1,0,0,1,544.3060302734375,544.27001953125)"><path fill="rgb(178,45,89)" fill-opacity="1" d=" M19.173999786376953,7.409999847412109 C7.934000015258789,26.719999313354492 -3.4760000705718994,29.579999923706055 -3.9560000896453857,29.690000534057617 C-4.105999946594238,29.729999542236328 -4.265999794006348,29.75 -4.415999889373779,29.75 C-4.556000232696533,29.75 -4.696000099182129,29.729999542236328 -4.835999965667725,29.700000762939453 C-5.326000213623047,29.600000381469727 -16.106000900268555,27.06999969482422 -26.715999603271484,10.760000228881836 C-19.256000518798828,18.200000762939453 -13.196000099182129,19.6200008392334 -12.836000442504883,19.700000762939453 C-12.696000099182129,19.729999542236328 -12.555999755859375,19.75 -12.416000366210938,19.75 C-12.265999794006348,19.75 -12.105999946594238,19.729999542236328 -11.956000328063965,19.690000534057617 C-11.47599983215332,19.579999923706055 -0.06599999964237213,16.719999313354492 11.173999786376953,-2.5899999141693115 C17.503999710083008,-13.460000038146973 18.81399917602539,-23.200000762939453 18.70400047302246,-29.75 C18.70400047302246,-29.75 23.694000244140625,-29.75 23.694000244140625,-29.75 C24.583999633789062,-29.75 25.354000091552734,-29.18000030517578 25.61400032043457,-28.329999923706055 C25.81399917602539,-27.639999389648438 30.423999786376953,-11.90999984741211 19.173999786376953,7.409999847412109z"></path></g><g opacity="1" transform="matrix(1,0,0,1,525.989990234375,530.5850219726562)"><path fill="rgb(255,169,204)" fill-opacity="1" d=" M18.010000228881836,-20.104999542236328 C18.010000228881836,-20.104999542236328 18.010000228881836,-20.104999542236328 18.010000228881836,-20.104999542236328 C18.010000228881836,-17.6200008392334 15.994999885559082,-15.604999542236328 13.510000228881836,-15.604999542236328 C13.510000228881836,-15.604999542236328 3.3259999752044678,-15.604999542236328 3.3259999752044678,-15.604999542236328 C2.2260000705718994,-15.604999542236328 1.2760000228881836,-14.736000061035156 1.2799999713897705,-13.63599967956543 C1.2949999570846558,-10.01200008392334 -1.3109999895095825,-7.065000057220459 -4.53000020980835,-7.065000057220459 C-4.53000020980835,-7.065000057220459 -9.989999771118164,-7.065000057220459 -9.989999771118164,-7.065000057220459 C-10.880000114440918,-7.065000057220459 -11.649999618530273,-6.494999885559082 -11.90999984741211,-5.644999980926514 C-12.09000015258789,-5.045000076293945 -15.859999656677246,7.875 -8.300000190734863,24.604999542236328 C-9.029999732971191,23.5049991607666 -9.75,22.334999084472656 -10.470000267028809,21.094999313354492 C-21.709999084472656,1.784999966621399 -17.110000610351562,-13.984999656677246 -16.90999984741211,-14.645000457763672 C-16.649999618530273,-15.494999885559082 -15.880000114440918,-16.065000534057617 -14.989999771118164,-16.065000534057617 C-14.989999771118164,-16.065000534057617 -9.529999732971191,-16.065000534057617 -9.529999732971191,-16.065000534057617 C-6.310999870300293,-16.065000534057617 -3.7049999237060547,-19.011999130249023 -3.7200000286102295,-22.63599967956543 C-3.7239999771118164,-23.736000061035156 -2.7739999294281006,-24.604999542236328 -1.6740000247955322,-24.604999542236328 C-1.6740000247955322,-24.604999542236328 13.510000228881836,-24.604999542236328 13.510000228881836,-24.604999542236328 C15.994999885559082,-24.604999542236328 18.010000228881836,-22.59000015258789 18.010000228881836,-20.104999542236328z"></path></g><g opacity="1" transform="matrix(1,0,0,1,520.343017578125,521.7000122070312)"><path fill="rgb(82,177,219)" fill-opacity="1" d=" M19.656999588012695,-23.700000762939453 C19.656999588012695,-23.700000762939453 18.656999588012695,-18.700000762939453 18.656999588012695,-18.700000762939453 C18.656999588012695,-18.700000762939453 2.6570000648498535,-18.700000762939453 2.6570000648498535,-18.700000762939453 C2.6570000648498535,-18.700000762939453 0.6570000052452087,-9.699999809265137 -4.3429999351501465,-8.699999809265137 C-9.343000411987305,-7.699999809265137 -14.343000411987305,-8.699999809265137 -14.343000411987305,-8.699999809265137 C-14.343000411987305,-8.699999809265137 -16.60300064086914,8.649999618530273 -14.572999954223633,23.700000762939453 C-22.92300033569336,3.740000009536743 -18.523000717163086,-11.34000015258789 -18.30299949645996,-12.0600004196167 C-18.17300033569336,-12.479999542236328 -17.783000946044922,-12.770000457763672 -17.343000411987305,-12.770000457763672 C-17.343000411987305,-12.770000457763672 -10.343000411987305,-12.770000457763672 -10.343000411987305,-12.770000457763672 C-5.382999897003174,-12.770000457763672 -1.343000054359436,-17.219999313354492 -1.343000054359436,-22.700000762939453 C-1.343000054359436,-23.25 -0.8930000066757202,-23.700000762939453 -0.34299999475479126,-23.700000762939453 C-0.34299999475479126,-23.700000762939453 19.656999588012695,-23.700000762939453 19.656999588012695,-23.700000762939453z"></path></g><g opacity="1" transform="matrix(1,0,0,1,520.3330078125,542.2050170898438)"><path stroke-linecap="round" stroke-linejoin="round" fill-opacity="0" stroke="rgb(0,0,0)" stroke-opacity="1" stroke-width="2" d=" M-3.0929999351501465,-26.735000610351562 C-3.3529999256134033,-26.704999923706055 -3.61299991607666,-26.684999465942383 -3.872999906539917,-26.684999465942383 C-3.872999906539917,-26.684999465942383 -9.333000183105469,-26.684999465942383 -9.333000183105469,-26.684999465942383 C-9.77299976348877,-26.684999465942383 -10.163000106811523,-26.395000457763672 -10.293000221252441,-25.975000381469727 C-10.482999801635742,-25.334999084472656 -14.972999572753906,-9.975000381469727 -3.953000068664551,8.96500015258789 C1.4470000267028809,18.225000381469727 7.017000198364258,23.625 11.357000350952148,26.735000610351562"></path></g><g opacity="1" transform="matrix(1,0,0,1,553.2440185546875,540)"><path stroke-linecap="round" stroke-linejoin="round" fill-opacity="0" stroke="rgb(0,0,0)" stroke-opacity="1" stroke-width="2" d=" M-12.444000244140625,-33.02000045776367 C-12.444000244140625,-33.02000045776367 1.4859999418258667,-33.02000045776367 1.4859999418258667,-33.02000045776367 C2.0360000133514404,-33.02000045776367 2.4860000610351562,-32.56999969482422 2.4860000610351562,-32.02000045776367 C2.4860000610351562,-27.860000610351562 5.535999774932861,-24.479999542236328 9.295999526977539,-24.479999542236328 C9.295999526977539,-24.479999542236328 14.755999565124512,-24.479999542236328 14.755999565124512,-24.479999542236328 C15.196000099182129,-24.479999542236328 15.586000442504883,-24.190000534057617 15.715999603271484,-23.770000457763672 C15.916000366210938,-23.1299991607666 20.395999908447266,-7.769999980926514 9.37600040435791,11.170000076293945 C-1.6440000534057617,30.110000610351562 -12.663999557495117,32.880001068115234 -13.12399959564209,32.9900016784668 C-13.204000473022461,33.0099983215332 -13.27400016784668,33.02000045776367 -13.354000091552734,33.02000045776367 C-13.423999786376953,33.02000045776367 -13.494000434875488,33.0099983215332 -13.564000129699707,32.9900016784668 C-13.71399974822998,32.959999084472656 -14.904000282287598,32.68000030517578 -16.784000396728516,31.780000686645508"></path></g><g opacity="1" transform="matrix(1,0,0,1,528.6749877929688,510.2799987792969)"><path stroke-linecap="round" stroke-linejoin="round" fill-opacity="0" stroke="rgb(0,0,0)" stroke-opacity="1" stroke-width="2" d=" M-7.664999961853027,3.299999952316284 C-6.275000095367432,1.9299999475479126 -5.40500020980835,-0.07000000029802322 -5.40500020980835,-2.299999952316284 C-5.40500020980835,-2.8499999046325684 -4.954999923706055,-3.299999952316284 -4.40500020980835,-3.299999952316284 C-4.40500020980835,-3.299999952316284 7.664999961853027,-3.299999952316284 7.664999961853027,-3.299999952316284"></path></g><g opacity="1" transform="matrix(1,0,0,1,539.9979858398438,538)"><path fill="rgb(255,189,91)" fill-opacity="1" d=" M7.791999816894531,16.829999923706055 C7.831999778747559,17.1200008392334 7.751999855041504,17.420000076293945 7.561999797821045,17.639999389648438 C7.381999969482422,17.8700008392334 7.0920000076293945,18 6.802000045776367,18 C6.802000045776367,18 -6.797999858856201,18 -6.797999858856201,18 C-7.0879998207092285,18 -7.368000030517578,17.8700008392334 -7.558000087738037,17.639999389648438 C-7.748000144958496,17.420000076293945 -7.8379998207092285,17.1200008392334 -7.788000106811523,16.829999923706055 C-7.788000106811523,16.829999923706055 -7.3979997634887695,14.539999961853027 -7.3979997634887695,14.539999961853027 C-7.3979997634887695,14.539999961853027 -4.558000087738037,-1.8700000047683716 -4.558000087738037,-1.8700000047683716 C-4.558000087738037,-1.8700000047683716 -3.9579999446868896,-5.340000152587891 -3.9579999446868896,-5.340000152587891 C-5.817999839782715,-6.630000114440918 -6.947999954223633,-8.760000228881836 -6.947999954223633,-11.050000190734863 C-6.947999954223633,-14.880000114440918 -3.828000068664551,-18 0.0020000000949949026,-18 C3.8320000171661377,-18 6.952000141143799,-14.880000114440918 6.952000141143799,-11.050000190734863 C6.952000141143799,-8.760000228881836 5.822000026702881,-6.630000114440918 3.9619998931884766,-5.340000152587891 C3.9619998931884766,-5.340000152587891 7.791999816894531,16.829999923706055 7.791999816894531,16.829999923706055z"></path></g><g opacity="1" transform="matrix(1,0,0,1,535.780029296875,544.5009765625)"><path fill="rgb(255,249,115)" fill-opacity="1" d=" M3.180000066757202,-5.421000003814697 C3.180000066757202,-5.241000175476074 3.1600000858306885,-5.071000099182129 3.130000114440918,-4.890999794006348 C3.130000114440918,-4.890999794006348 1.2200000286102295,5.939000129699707 1.2200000286102295,5.939000129699707 C0.9300000071525574,7.568999767303467 -0.6299999952316284,8.659000396728516 -2.259999990463257,8.369000434875488 C-2.5899999141693115,8.309000015258789 -2.9000000953674316,8.199000358581543 -3.180000066757202,8.038999557495117 C-3.180000066757202,8.038999557495117 -0.3400000035762787,-8.371000289916992 -0.3400000035762787,-8.371000289916992 C-0.009999999776482582,-8.430999755859375 0.3400000035762787,-8.430999755859375 0.699999988079071,-8.371000289916992 C2.1500000953674316,-8.111000061035156 3.180000066757202,-6.841000080108643 3.180000066757202,-5.421000003814697z"></path></g><g opacity="1" transform="matrix(1,0,0,1,542.9000244140625,538)"><path fill="rgb(255,123,91)" fill-opacity="1" d=" M4.889999866485596,16.829999923706055 C4.929999828338623,17.1200008392334 4.849999904632568,17.420000076293945 4.659999847412109,17.639999389648438 C4.480000019073486,17.8700008392334 4.190000057220459,18 3.9000000953674316,18 C3.9000000953674316,18 -0.10000000149011612,18 -0.10000000149011612,18 C0.1899999976158142,18 0.47999998927116394,17.8700008392334 0.6600000262260437,17.639999389648438 C0.8500000238418579,17.420000076293945 0.9300000071525574,17.1200008392334 0.8899999856948853,16.829999923706055 C0.8899999856948853,16.829999923706055 -2.940000057220459,-5.340000152587891 -2.940000057220459,-5.340000152587891 C-1.0800000429153442,-6.630000114440918 0.05000000074505806,-8.760000228881836 0.05000000074505806,-11.050000190734863 C0.05000000074505806,-14.1899995803833 -2.0399999618530273,-16.850000381469727 -4.900000095367432,-17.709999084472656 C-4.260000228881836,-17.899999618530273 -3.5899999141693115,-18 -2.9000000953674316,-18 C0.9300000071525574,-18 4.050000190734863,-14.880000114440918 4.050000190734863,-11.050000190734863 C4.050000190734863,-8.760000228881836 2.9200000762939453,-6.630000114440918 1.059999942779541,-5.340000152587891 C1.059999942779541,-5.340000152587891 4.889999866485596,16.829999923706055 4.889999866485596,16.829999923706055z"></path></g><g opacity="1" transform="matrix(1,0,0,1,537.1909790039062,549.1400146484375)"><path stroke-linecap="round" stroke-linejoin="round" fill-opacity="0" stroke="rgb(0,0,0)" stroke-opacity="1" stroke-width="2" d=" M-35.340999603271484,-31.860000610351562 C-35.89099884033203,-24 -34.99100112915039,-10.600000381469727 -26.19099998474121,4.53000020980835 C-12.190999984741211,28.579999923706055 2.809000015258789,31.860000610351562 2.809000015258789,31.860000610351562 C2.809000015258789,31.860000610351562 16.80900001525879,28.579999923706055 30.80900001525879,4.53000020980835 C32.70899963378906,1.2599999904632568 34.249000549316406,-1.9299999475479126 35.46900177001953,-5"></path></g><g opacity="1" transform="matrix(1,0,0,1,550.8900146484375,518.10498046875)"><path stroke-linecap="round" stroke-linejoin="round" fill-opacity="0" stroke="rgb(0,0,0)" stroke-opacity="1" stroke-width="2" d=" M-26.389999389648438,-19.104999542236328 C-26.389999389648438,-19.104999542236328 8.109999656677246,-19.104999542236328 8.109999656677246,-19.104999542236328 C8.109999656677246,-13.0649995803833 12.59000015258789,-8.175000190734863 18.110000610351562,-8.175000190734863 C18.110000610351562,-8.175000190734863 25.110000610351562,-8.175000190734863 25.110000610351562,-8.175000190734863 C25.110000610351562,-8.175000190734863 28.559999465942383,3.1449999809265137 24.1299991607666,19.104999542236328"></path></g><g opacity="1" transform="matrix(1,0,0,1,511.25,505.7300109863281)"><path stroke-linecap="round" stroke-linejoin="round" fill-opacity="0" stroke="rgb(0,0,0)" stroke-opacity="1" stroke-width="2" d=" M-8.739999771118164,6.309999942779541 C-8.739999771118164,6.309999942779541 -8.739999771118164,6.300000190734863 -8.739999771118164,6.300000190734863 C-8.479999542236328,4.940000057220459 -8.25,4.199999809265137 -8.25,4.199999809265137 C-8.25,4.199999809265137 -1.25,4.199999809265137 -1.25,4.199999809265137 C4.139999866485596,4.199999809265137 8.539999961853027,-0.46000000834465027 8.739999771118164,-6.309999942779541"></path></g><g opacity="1" transform="matrix(1,0,0,1,540,538)"><path stroke-linecap="round" stroke-linejoin="round" fill-opacity="0" stroke="rgb(0,0,0)" stroke-opacity="1" stroke-width="2" d=" M-3.2699999809265137,-16.030000686645508 C-2.3299999237060547,-16.639999389648438 -1.2000000476837158,-17 0,-17 C3.2899999618530273,-17 5.949999809265137,-14.34000015258789 5.949999809265137,-11.050000190734863 C5.949999809265137,-8.800000190734863 4.699999809265137,-6.849999904632568 2.859999895095825,-5.829999923706055 C2.859999895095825,-5.829999923706055 6.800000190734863,17 6.800000190734863,17 C6.800000190734863,17 -6.800000190734863,17 -6.800000190734863,17 C-6.800000190734863,17 -4.940000057220459,6.230000019073486 -4.940000057220459,6.230000019073486"></path></g><g opacity="1" transform="matrix(1,0,0,1,535.594970703125,532.5850219726562)"><path stroke-linecap="round" stroke-linejoin="round" fill-opacity="0" stroke="rgb(0,0,0)" stroke-opacity="1" stroke-width="2" d=" M-0.6949999928474426,-8.6850004196167 C-1.2350000143051147,-7.795000076293945 -1.5449999570846558,-6.755000114440918 -1.5449999570846558,-5.635000228881836 C-1.5449999570846558,-3.384999990463257 -0.29499998688697815,-1.434999942779541 1.5449999570846558,-0.41499999165534973 C1.5449999570846558,-0.41499999165534973 -0.02500000037252903,8.6850004196167 -0.02500000037252903,8.6850004196167"></path></g><g opacity="1" transform="matrix(1,0,0,1,537.5,526.5)"><path fill="rgb(255,249,115)" fill-opacity="1" d=" M2.5,0 C2.5,1.38100004196167 1.38100004196167,2.5 0,2.5 C-1.38100004196167,2.5 -2.5,1.38100004196167 -2.5,0 C-2.5,-1.38100004196167 -1.38100004196167,-2.5 0,-2.5 C1.38100004196167,-2.5 2.5,-1.38100004196167 2.5,0z"></path></g><g opacity="1" transform="matrix(1,0,0,1,522.5,533.5)"><path fill="rgb(255,169,204)" fill-opacity="1" d=" M4.5,0 C4.5,2.484999895095825 2.484999895095825,4.5 0,4.5 C-2.484999895095825,4.5 -4.5,2.484999895095825 -4.5,0 C-4.5,-2.484999895095825 -2.484999895095825,-4.5 0,-4.5 C2.484999895095825,-4.5 4.5,-2.484999895095825 4.5,0z"></path></g><g opacity="1" transform="matrix(1,0,0,1,502.510009765625,512.0349731445312)"><path stroke-linecap="round" stroke-linejoin="round" fill-opacity="0" stroke="rgb(0,0,0)" stroke-opacity="1" stroke-width="2" d=" M0,0.004999999888241291 C0,0.004999999888241291 0,-0.004999999888241291 0,-0.004999999888241291"></path></g><g opacity="1" transform="matrix(1,0,0,1,535.0599975585938,544.2349853515625)"><path stroke-linecap="round" stroke-linejoin="round" fill-opacity="0" stroke="rgb(0,0,0)" stroke-opacity="1" stroke-width="2" d=" M0,0.004999999888241291 C0,0.004999999888241291 0,-0.004999999888241291 0,-0.004999999888241291"></path></g></g><g transform="matrix(7.884555339813232,1.3541725873947144,-1.3541725873947144,7.884555339813232,-2950.601806640625,-4456.4873046875)" opacity="1" style="display: block;"><g opacity="1" transform="matrix(1,0,0,1,561.5,564.5)"><path fill="rgb(164,243,255)" fill-opacity="1" d=" M0,-14.5 C-7.994999885559082,-14.5 -14.5,-7.994999885559082 -14.5,0 C-14.5,7.994999885559082 -7.994999885559082,14.5 0,14.5 C7.994999885559082,14.5 14.5,7.994999885559082 14.5,0 C14.5,-7.994999885559082 7.994999885559082,-14.5 0,-14.5z"></path></g><g opacity="1" transform="matrix(1,0,0,1,561.3699951171875,561.1300048828125)"><path fill="rgb(235,255,255)" fill-opacity="1" d=" M14.369999885559082,0.6100000143051147 C11.800000190734863,-3.440000057220459 7.269999980926514,-6.130000114440918 2.130000114440918,-6.130000114440918 C-5.869999885559082,-6.130000114440918 -12.369999885559082,0.3700000047683716 -12.369999885559082,8.369999885559082 C-12.369999885559082,9.3100004196167 -12.279999732971191,10.239999771118164 -12.109999656677246,11.130000114440918 C-13.539999961853027,8.890000343322754 -14.369999885559082,6.230000019073486 -14.369999885559082,3.369999885559082 C-14.369999885559082,-4.630000114440918 -7.869999885559082,-11.130000114440918 0.12999999523162842,-11.130000114440918 C7.190000057220459,-11.130000114440918 13.079999923706055,-6.070000171661377 14.369999885559082,0.6100000143051147z"></path></g><g opacity="1" transform="matrix(1,0,0,1,561.9099731445312,566.8499755859375)"><path fill="rgb(115,187,216)" fill-opacity="1" d=" M14.09000015258789,-2.3499999046325684 C14.09000015258789,5.650000095367432 7.590000152587891,12.149999618530273 -0.4099999964237213,12.149999618530273 C-6.730000019073486,12.149999618530273 -12.109999656677246,8.100000381469727 -14.09000015258789,2.450000047683716 C-11.4399995803833,5.340000152587891 -7.630000114440918,7.150000095367432 -3.4100000858306885,7.150000095367432 C4.590000152587891,7.150000095367432 11.09000015258789,0.6499999761581421 11.09000015258789,-7.349999904632568 C11.09000015258789,-9.029999732971191 10.800000190734863,-10.649999618530273 10.270000457763672,-12.149999618530273 C12.649999618530273,-9.5600004196167 14.09000015258789,-6.130000114440918 14.09000015258789,-2.3499999046325684z"></path></g><g opacity="1" transform="matrix(1,0,0,1,560.3200073242188,565.5750122070312)"><path stroke-linecap="round" stroke-linejoin="round" fill-opacity="0" stroke="rgb(0,0,0)" stroke-opacity="1" stroke-width="2" d=" M-6.130000114440918,-12.425000190734863 C-9.859999656677246,-10.024999618530273 -12.319999694824219,-5.835000038146973 -12.319999694824219,-1.0750000476837158 C-12.319999694824219,6.385000228881836 -6.28000020980835,12.425000190734863 1.1799999475479126,12.425000190734863 C5.809999942779541,12.425000190734863 9.890000343322754,10.104999542236328 12.319999694824219,6.554999828338623"></path></g><g opacity="1" transform="matrix(1,0,0,1,566.8250122070312,560)"><path stroke-linecap="round" stroke-linejoin="round" fill-opacity="0" stroke="rgb(0,0,0)" stroke-opacity="1" stroke-width="2" d=" M-8.175000190734863,-8.699999809265137 C-7.255000114440918,-8.899999618530273 -6.304999828338623,-9 -5.324999809265137,-9 C2.134999990463257,-9 8.175000190734863,-2.9600000381469727 8.175000190734863,4.5 C8.175000190734863,6.079999923706055 7.90500020980835,7.599999904632568 7.40500020980835,9"></path></g><g opacity="1" transform="matrix(1,0,0,1,565.1790161132812,562.510009765625)"><path fill="rgb(0,255,81)" fill-opacity="1" d=" M12.35099983215332,-4.630000114440918 C12.35099983215332,-4.630000114440918 2.5309998989105225,5.190000057220459 2.5309998989105225,5.190000057220459 C2.5309998989105225,5.190000057220459 -1.8289999961853027,9.550000190734863 -1.8289999961853027,9.550000190734863 C-2.489000082015991,10.210000038146973 -3.36899995803833,10.579999923706055 -4.298999786376953,10.579999923706055 C-5.238999843597412,10.579999923706055 -6.11899995803833,10.210000038146973 -6.7789998054504395,9.550000190734863 C-6.7789998054504395,9.550000190734863 -12.348999977111816,3.9800000190734863 -12.348999977111816,3.9800000190734863 C-13.019000053405762,3.319999933242798 -13.378999710083008,2.440000057220459 -13.378999710083008,1.5 C-13.378999710083008,0.5600000023841858 -13.008999824523926,-0.3199999928474426 -12.348999977111816,-0.9800000190734863 C-11.029000282287598,-2.299999952316284 -8.718999862670898,-2.299999952316284 -7.388999938964844,-0.9800000190734863 C-7.388999938964844,-0.9800000190734863 -4.298999786376953,2.109999895095825 -4.298999786376953,2.109999895095825 C-4.298999786376953,2.109999895095825 3.2009999752044678,-5.400000095367432 3.2009999752044678,-5.400000095367432 C3.2009999752044678,-5.400000095367432 7.390999794006348,-9.59000015258789 7.390999794006348,-9.59000015258789 C8.720999717712402,-10.90999984741211 11.031000137329102,-10.90999984741211 12.35099983215332,-9.59000015258789 C13.720999717712402,-8.220000267028809 13.720999717712402,-5.989999771118164 12.35099983215332,-4.630000114440918z"></path></g><g opacity="1" transform="matrix(1,0,0,1,573.1339721679688,559.8150024414062)"><path fill="rgb(6,196,96)" fill-opacity="1" d=" M4.395999908447266,-1.934999942779541 C4.395999908447266,-1.934999942779541 -5.423999786376953,7.885000228881836 -5.423999786376953,7.885000228881836 C-4.513999938964844,3.755000114440918 -4.553999900817871,-0.13500000536441803 -4.754000186920166,-2.7049999237060547 C-4.754000186920166,-2.7049999237060547 -0.5640000104904175,-6.894999980926514 -0.5640000104904175,-6.894999980926514 C0.765999972820282,-8.21500015258789 3.0759999752044678,-8.21500015258789 4.395999908447266,-6.894999980926514 C5.765999794006348,-5.525000095367432 5.765999794006348,-3.2950000762939453 4.395999908447266,-1.934999942779541z"></path></g><g opacity="1" transform="matrix(1,0,0,1,565.1799926757812,562.489990234375)"><path stroke-linecap="round" stroke-linejoin="round" fill-opacity="0" stroke="rgb(0,0,0)" stroke-opacity="1" stroke-width="2" d=" M0.5899999737739563,-1.340000033378601 C0.5899999737739563,-1.340000033378601 8.100000381469727,-8.859999656677246 8.100000381469727,-8.859999656677246 C9.079999923706055,-9.84000015258789 10.670000076293945,-9.84000015258789 11.649999618530273,-8.859999656677246 C12.619999885559082,-7.880000114440918 12.619999885559082,-6.289999961853027 11.649999618530273,-5.320000171661377 C11.649999618530273,-5.320000171661377 -2.5299999713897705,8.859999656677246 -2.5299999713897705,8.859999656677246 C-3.509999990463257,9.84000015258789 -5.099999904632568,9.84000015258789 -6.079999923706055,8.859999656677246 C-6.079999923706055,8.859999656677246 -11.649999618530273,3.2899999618530273 -11.649999618530273,3.2899999618530273 C-12.619999885559082,2.309999942779541 -12.619999885559082,0.7300000190734863 -11.649999618530273,-0.25 C-10.670000076293945,-1.2300000190734863 -9.079999923706055,-1.2300000190734863 -8.100000381469727,-0.25 C-8.100000381469727,-0.25 -4.300000190734863,3.549999952316284 -4.300000190734863,3.549999952316284 C-4.300000190734863,3.549999952316284 -2.4100000858306885,1.659999966621399 -2.4100000858306885,1.659999966621399"></path></g><g opacity="1" transform="matrix(1,0,0,1,560,557)"><path fill="rgb(235,255,255)" fill-opacity="1" d=" M3,0 C3,1.656999945640564 1.656999945640564,3 0,3 C-1.656999945640564,3 -3,1.656999945640564 -3,0 C-3,-1.656999945640564 -1.656999945640564,-3 0,-3 C1.656999945640564,-3 3,-1.656999945640564 3,0z"></path></g></g><g transform="matrix(8,0,0,8,196.001220703125,599.01806640625)" opacity="1" style="display: block;"><g opacity="1" transform="matrix(1,0,0,1,0,0)"><path stroke-linecap="round" stroke-linejoin="round" fill-opacity="0" stroke="rgb(0,0,0)" stroke-opacity="1" stroke-width="2" d="M0 0"></path></g></g><g transform="matrix(8,0,0,8,252.001220703125,727.01806640625)" opacity="1" style="display: block;"><g opacity="1" transform="matrix(1,0,0,1,0,0)"><path stroke-linecap="round" stroke-linejoin="round" fill-opacity="0" stroke="rgb(0,0,0)" stroke-opacity="1" stroke-width="2" d=" M2.946000099182129,-4.071000099182129 C2.946000099182129,-4.071000099182129 2.880000114440918,-3.9800000190734863 2.76200008392334,-3.815999984741211"></path></g></g><g transform="matrix(8,0,0,8,-3779.998779296875,-3828.98193359375)" opacity="1" style="display: block;"><g opacity="1" transform="matrix(1,0,0,1,491.3349914550781,566.8350219726562)"><path stroke-linecap="round" stroke-linejoin="round" fill-opacity="0" stroke="rgb(0,0,0)" stroke-opacity="1" stroke-width="2" d=" M6.335000038146973,-3.1649999618530273 C6.335000038146973,-3.1649999618530273 4.416999816894531,-2.2070000171661377 2.0739998817443848,-1.0360000133514404"></path></g><g opacity="1" transform="matrix(1,0,0,1,503.1099853515625,560.9450073242188)"><path stroke-linecap="round" stroke-linejoin="round" fill-opacity="0" stroke="rgb(0,0,0)" stroke-opacity="1" stroke-width="2" d=" M1.8899999856948853,-0.9449999928474426 C1.8899999856948853,-0.9449999928474426 1.3179999589920044,-0.6589999794960022 0.6190000176429749,-0.3089999854564667"></path></g></g><g transform="matrix(8,0,0,8,892.561279296875,214.281982421875)" opacity="1" style="display: block;"><g opacity="1" transform="matrix(1,0,0,1,0,0)"><path stroke-linecap="round" stroke-linejoin="round" fill-opacity="0" stroke="rgb(0,0,0)" stroke-opacity="1" stroke-width="2" d="M0 0"></path></g></g><g transform="matrix(8,0,0,8,777.921142578125,134.41015625)" opacity="1" style="display: block;"><g opacity="1" transform="matrix(1,0,0,1,0,0)"><path stroke-linecap="round" stroke-linejoin="round" fill-opacity="0" stroke="rgb(0,0,0)" stroke-opacity="1" stroke-width="2" d=" M-0.3840000033378601,5.010000228881836 C-0.3840000033378601,5.010000228881836 -0.375,4.8979997634887695 -0.36000001430511475,4.697000026702881"></path></g></g><g transform="matrix(8,0,0,8,-3779.998779296875,-3828.98193359375)" opacity="1" style="display: block;"><g opacity="1" transform="matrix(1,0,0,1,581.219970703125,492.3999938964844)"><path stroke-linecap="round" stroke-linejoin="round" fill-opacity="0" stroke="rgb(0,0,0)" stroke-opacity="1" stroke-width="2" d=" M-2.7799999713897705,4.400000095367432 C-2.7799999713897705,4.400000095367432 -1.937999963760376,3.068000078201294 -0.9100000262260437,1.440999984741211"></path></g><g opacity="1" transform="matrix(1,0,0,1,575.1199951171875,502.0400085449219)"><path stroke-linecap="round" stroke-linejoin="round" fill-opacity="0" stroke="rgb(0,0,0)" stroke-opacity="1" stroke-width="2" d=" M-1.2699999809265137,2.009999990463257 C-1.2699999809265137,2.009999990463257 -0.8859999775886536,1.4019999504089355 -0.41600000858306885,0.6579999923706055"></path></g></g><g transform="matrix(-7.8256611824035645,1.6610316038131714,-1.6610316038131714,-7.8256611824035645,4926.5283203125,3866.17919921875)" opacity="1" style="display: block;"><g opacity="1" transform="matrix(1,0,0,1,494,535)"><path fill="rgb(0,231,123)" fill-opacity="1" d=" M0,-4 C-2.2060000896453857,-4 -4,-2.2060000896453857 -4,0 C-4,2.2060000896453857 -2.2060000896453857,4 0,4 C2.2060000896453857,4 4,2.2060000896453857 4,0 C4,-2.2060000896453857 2.2060000896453857,-4 0,-4z"></path></g><g opacity="1" transform="matrix(1,0,0,1,494,534.9199829101562)"><path stroke-linecap="round" stroke-linejoin="round" fill-opacity="0" stroke="rgb(0,0,0)" stroke-opacity="1" stroke-width="2" d=" M2.990000009536743,0.25 C3,0.1899999976158142 3,0.14000000059604645 3,0.07999999821186066 C3,-1.5800000429153442 1.659999966621399,-2.9200000762939453 0,-2.9200000762939453 C-1.659999966621399,-2.9200000762939453 -3,-1.5800000429153442 -3,0.07999999821186066 C-3,1.409999966621399 -2.140000104904175,2.5299999713897705 -0.949999988079071,2.9200000762939453"></path></g></g><g transform="matrix(-7.8256611824035645,-1.6610316038131714,1.6610316038131714,-7.8256611824035645,3844.494140625,4828.25244140625)" opacity="1" style="display: block;"><g opacity="1" transform="matrix(1,0,0,1,533,488)"><path fill="rgb(255,0,244)" fill-opacity="1" d=" M0,-4 C-2.2060000896453857,-4 -4,-2.2060000896453857 -4,0 C-4,2.2060000896453857 -2.2060000896453857,4 0,4 C2.2060000896453857,4 4,2.2060000896453857 4,0 C4,-2.2060000896453857 2.2060000896453857,-4 0,-4z"></path></g><g opacity="1" transform="matrix(1,0,0,1,533,487.989990234375)"><path stroke-linecap="round" stroke-linejoin="round" fill-opacity="0" stroke="rgb(0,0,0)" stroke-opacity="1" stroke-width="2" d=" M2.940000057220459,0.6299999952316284 C2.9800000190734863,0.4300000071525574 3,0.2199999988079071 3,0.009999999776482582 C3,-1.649999976158142 1.659999966621399,-2.990000009536743 0,-2.990000009536743 C-1.659999966621399,-2.990000009536743 -3,-1.649999976158142 -3,0.009999999776482582 C-3,1.5700000524520874 -1.8200000524520874,2.8499999046325684 -0.30000001192092896,2.990000009536743"></path></g></g><g transform="matrix(9.781937599182129,0,0,9.781937599182129,708.8170166015625,160.81399536132812)" opacity="1" style="display: block;"><g opacity="1" transform="matrix(1,0,0,1,0,0)"><path fill="rgb(0,0,0)" fill-opacity="1" d=" M0,1.5190000534057617 C-0.8370000123977661,1.5190000534057617 -1.5190000534057617,0.8370000123977661 -1.5190000534057617,0 C-1.5190000534057617,-0.8370000123977661 -0.8370000123977661,-1.5190000534057617 0,-1.5190000534057617 C0.8370000123977661,-1.5190000534057617 1.5190000534057617,-0.8370000123977661 1.5190000534057617,0 C1.5190000534057617,0.8370000123977661 0.8370000123977661,1.5190000534057617 0,1.5190000534057617z"></path></g></g><g transform="matrix(1.4479928016662598,7.867866039276123,-7.867866039276123,1.4479928016662598,4257.93017578125,-4868.943359375)" opacity="1" style="display: block;"><g opacity="1" transform="matrix(1,0,0,1,584.5640258789062,535.0800170898438)"><path fill="rgb(0,110,208)" fill-opacity="1" d=" M4.150000095367432,-1 C2.4130001068115234,-1 1,-2.4130001068115234 1,-4.150000095367432 C1,-4.702000141143799 0.5529999732971191,-5.150000095367432 0,-5.150000095367432 C-0.5529999732971191,-5.150000095367432 -1,-4.702000141143799 -1,-4.150000095367432 C-1,-2.4130001068115234 -2.4140000343322754,-1 -4.150000095367432,-1 C-4.703000068664551,-1 -5.150000095367432,-0.5519999861717224 -5.150000095367432,0 C-5.150000095367432,0.5519999861717224 -4.703000068664551,1 -4.150000095367432,1 C-2.4140000343322754,1 -1,2.4130001068115234 -1,4.150000095367432 C-1,4.702000141143799 -0.5529999732971191,5.150000095367432 0,5.150000095367432 C0.5529999732971191,5.150000095367432 1,4.702000141143799 1,4.150000095367432 C1,2.4130001068115234 2.4130001068115234,1 4.150000095367432,1 C4.703000068664551,1 5.150000095367432,0.5519999861717224 5.150000095367432,0 C5.150000095367432,-0.5519999861717224 4.703000068664551,-1 4.150000095367432,-1z"></path></g><g opacity="1" transform="matrix(1,0,0,1,583.1900024414062,533.9000244140625)"><path stroke-linecap="round" stroke-linejoin="round" fill-opacity="0" stroke="rgb(0,0,0)" stroke-opacity="1" stroke-width="2" d=" M2.7799999713897705,0.12999999523162842 C1.909999966621399,-0.6200000047683716 1.3700000047683716,-1.7300000190734863 1.3700000047683716,-2.9700000286102295 C1.3700000047683716,-0.6800000071525574 -0.47999998927116394,1.1799999475479126 -2.7799999713897705,1.1799999475479126 C-1.3600000143051147,1.1799999475479126 -0.10999999940395355,1.8899999856948853 0.6399999856948853,2.9700000286102295"></path></g></g><g transform="matrix(0.3197670876979828,7.9936065673828125,-7.9936065673828125,0.3197670876979828,4096.8681640625,-4004.441650390625)" opacity="1" style="display: block;"><g opacity="1" transform="matrix(1,0,0,1,505.1470031738281,500.70599365234375)"><path stroke-linecap="round" stroke-linejoin="round" fill-opacity="0" stroke="rgb(0,0,0)" stroke-opacity="1" stroke-width="2" d=" M0,-2.5929999351501465 C0,-2.5929999351501465 0,2.5929999351501465 0,2.5929999351501465"></path></g><g opacity="1" transform="matrix(1,0,0,1,505.1470031738281,500.70599365234375)"><path stroke-linecap="round" stroke-linejoin="round" fill-opacity="0" stroke="rgb(0,0,0)" stroke-opacity="1" stroke-width="2" d=" M2.5929999351501465,0 C2.5929999351501465,0 -2.5929999351501465,0 -2.5929999351501465,0"></path></g></g></g></svg>